<?xml version="1.0" encoding="iso-8859-1"?>
<!-- Generator: Adobe Illustrator 15.0.0, SVG Export Plug-In . SVG Version: 6.00 Build 0)  -->
<!DOCTYPE svg PUBLIC "-//W3C//DTD SVG 1.1//EN" "http://www.w3.org/Graphics/SVG/1.1/DTD/svg11.dtd">
<svg version="1.1" id="Layer_1" xmlns="http://www.w3.org/2000/svg" xmlns:xlink="http://www.w3.org/1999/xlink" x="0px" y="0px"
	 width="128px" height="128px" viewBox="0 0 128 128" style="enable-background:new 0 0 128 128;" xml:space="preserve">
<g>
	<circle style="fill:#4AB8A1;" cx="64" cy="64" r="64"/>
	<path style="fill:#FFFFFF;" d="M59,87c-1.104,0-2-0.896-2-2v-8c0-0.992,0.729-1.835,1.711-1.979L94,69.271V56H30
		c-1.104,0-2-0.896-2-2s0.896-2,2-2h66c1.104,0,2,0.896,2,2v17c0,0.992-0.729,1.835-1.711,1.979L61,78.729V85
		C61,86.104,60.104,87,59,87z"/>
	<path style="fill:#99602E;" d="M66,112c0,2.2-1.8,4-4,4h-6c-2.2,0-4-1.8-4-4V88c0-2.2,1.8-4,4-4h6c2.2,0,4,1.8,4,4V112z"/>
	<path style="fill:#8C582A;" d="M62,84h-4c2.2,0,4,1.8,4,4v24c0,2.2-1.8,4-4,4h4c2.2,0,4-1.8,4-4V88C66,85.8,64.2,84,62,84z"/>
	<path style="fill:#E6E6E6;" d="M91,60c0,2.2-1.8,4-4,4H37c-2.2,0-4-1.8-4-4V48c0-2.2,1.8-4,4-4h50c2.2,0,4,1.8,4,4V60z"/>
	<path style="fill:#CCCCCC;" d="M87,44h-3c2.2,0,4,1.8,4,4v12c0,2.2-1.8,4-4,4h3c2.2,0,4-1.8,4-4V48C91,45.8,89.2,44,87,44z"/>
	<path style="fill:#406A80;" d="M64,0c-9.65,0-18.794,2.148-27,5.974V46c0,1.656,1.344,3,3,3c0.223,0,0.438-0.028,0.646-0.074
		C42.432,48.582,44.215,47,46,47c2,0,1,5,3,5s2-5,6-5s3,2,4,2s1-3,3-3c3,0,1,8,5,8s2-6,3-6s1,1,2,1s1-1,2-1s0,5,2,5s2-4,3-4
		c1.104,0,2-0.896,2-2c0-0.101-0.016-0.197-0.029-0.293C81.271,46.889,81.622,47,82,47c0.415,0,0.8-0.127,1.119-0.343
		C83.393,47.438,84.127,48,85,48c1.104,0,2-0.896,2-2V4.275C79.859,1.524,72.109,0,64,0z"/>
	<g>
		<path style="fill:#4AB8A1;" d="M71,0.389V10c0,1.104,0.896,2,2,2s2-0.896,2-2v11c0,0.553,0.447,1,1,1s1-0.447,1-1V8
			c0,1.104,0.896,2,2,2s2-0.896,2-2V2.301C77.761,1.41,74.423,0.761,71,0.389z"/>
		<path style="fill:#4AB8A1;" d="M65,23c0.553,0,1-0.447,1-1V0.051C65.334,0.03,64.671,0,64,0v22C64,22.553,64.447,23,65,23z"/>
		<path style="fill:#4AB8A1;" d="M42,21c1.104,0,2-0.896,2-2v-5c0,1.104,0.896,2,2,2s2-0.896,2-2V2.017
			c-2.745,0.706-5.411,1.604-8,2.653V19C40,20.104,40.896,21,42,21z"/>
		<path style="fill:#4AB8A1;" d="M50,1.555V17c0,0.553,0.447,1,1,1s1-0.447,1-1v-2c0,1.656,1.344,3,3,3s3-1.344,3-3V0.289
			C55.279,0.542,52.611,0.972,50,1.555z"/>
	</g>
	<rect x="37" y="43" style="fill:#395F73;" width="50" height="1"/>
</g>
</svg>
