<?xml version="1.0" encoding="iso-8859-1"?>
<!-- Generator: Adobe Illustrator 15.0.0, SVG Export Plug-In . SVG Version: 6.00 Build 0)  -->
<!DOCTYPE svg PUBLIC "-//W3C//DTD SVG 1.1//EN" "http://www.w3.org/Graphics/SVG/1.1/DTD/svg11.dtd">
<svg version="1.1" id="Layer_1" xmlns="http://www.w3.org/2000/svg" xmlns:xlink="http://www.w3.org/1999/xlink" x="0px" y="0px"
	 width="128px" height="128px" viewBox="0 0 128 128" style="enable-background:new 0 0 128 128;" xml:space="preserve">
<g>
	<circle style="fill:#88C5CC;" cx="64" cy="64" r="64"/>
	<path style="fill:#80B9BF;" d="M103.009,24.58c-0.002-0.222-0.036-0.389-0.116-0.471c-0.049-0.048-0.125-0.082-0.224-0.103
		c-0.026-0.005-0.065-0.003-0.095-0.007c-0.083-0.01-0.17-0.019-0.278-0.014c-0.039,0.001-0.088,0.009-0.129,0.013
		c-0.12,0.01-0.246,0.024-0.392,0.049c-0.041,0.007-0.09,0.019-0.135,0.027c-0.164,0.031-0.338,0.069-0.529,0.117
		c-0.039,0.01-0.084,0.022-0.123,0.033c-0.213,0.055-0.438,0.119-0.68,0.194c-0.033,0.01-0.065,0.021-0.098,0.03
		c-0.264,0.082-0.542,0.174-0.837,0.278c-0.021,0.007-0.043,0.015-0.065,0.022c-0.312,0.11-0.641,0.231-0.986,0.363
		c-0.014,0.005-0.026,0.01-0.039,0.015c-0.355,0.137-0.727,0.284-1.115,0.444c-0.006,0.002-0.012,0.004-0.018,0.007l0,0
		c-8.807,3.62-25.814,13.118-38.099,25.401c-4.963,4.963-9.244,10.328-11.833,15.737c-0.055,0.115-0.106,0.23-0.16,0.346
		c-0.191,0.41-0.373,0.82-0.543,1.231c-0.068,0.162-0.133,0.324-0.197,0.487c-0.146,0.369-0.282,0.738-0.411,1.107
		c-0.062,0.178-0.125,0.354-0.183,0.531c-0.121,0.374-0.229,0.747-0.333,1.12c-0.044,0.162-0.095,0.323-0.136,0.483
		c-0.134,0.528-0.252,0.817-0.346,1.345C25.817,74.075,34.302,94,23.695,100l8.466,19.509C41.54,124.9,52.405,128,64,128
		c29.536,0,54.384-20.014,61.762-47.215L103.009,24.58z"/>
	<path style="fill:#263740;" d="M53.395,82.092c7.834-1.363,15.517-7.031,22.626-14.142c16.265-16.264,28.361-42.35,26.871-43.841
		c-1.488-1.487-27.076,10.105-43.841,26.87C51.981,58.05,46.278,65.938,44.91,73.605L53.395,82.092z"/>
	<path style="fill:#1E2C33;" d="M102.893,24.109c-0.397-0.397-2.529,0.147-5.742,1.468c-3.703,8.893-13.405,26.164-25.371,38.13
		c-7.111,7.109-14.793,12.777-22.627,14.143l4.243,4.242c7.834-1.363,15.517-7.031,22.626-14.142
		C92.285,51.687,104.383,25.601,102.893,24.109z"/>
	<path style="fill:#E6E6E6;" d="M51.199,60.098c-3.187,4.44-5.487,9.011-6.29,13.509l8.485,8.484
		c4.592-0.799,9.131-3.084,13.534-6.265L51.199,60.098z"/>
	<path style="fill:#CCCCCC;" d="M62.686,71.584c-4.403,3.182-8.941,5.466-13.534,6.266l4.243,4.242
		c4.592-0.799,9.131-3.084,13.535-6.265L62.686,71.584z"/>
	<path style="fill:#E6BF5A;" d="M53.395,82.092l-8.485-8.484c-19.092,0.707-10.607,20.506-21.214,26.871
		c7.324,0,19.8-0.002,24.749-4.951C53.395,90.578,53.795,85.432,53.395,82.092z"/>
	<path style="fill:#FFD464;" d="M52.687,81.385l-6.364-6.363c-14.056,0.521-7.04,15.82-14.849,20.506
		c5.392,0,14.034,0.106,17.678-3.536C52.797,88.348,52.982,83.844,52.687,81.385z"/>
</g>
</svg>
