<?xml version="1.0" encoding="iso-8859-1"?>
<!-- Generator: Adobe Illustrator 15.0.0, SVG Export Plug-In . SVG Version: 6.00 Build 0)  -->
<!DOCTYPE svg PUBLIC "-//W3C//DTD SVG 1.1//EN" "http://www.w3.org/Graphics/SVG/1.1/DTD/svg11.dtd">
<svg version="1.1" id="Layer_1" xmlns="http://www.w3.org/2000/svg" xmlns:xlink="http://www.w3.org/1999/xlink" x="0px" y="0px"
	 width="128px" height="128px" viewBox="0 0 128 128" style="enable-background:new 0 0 128 128;" xml:space="preserve">
<g>
	<circle style="fill:#4AB8A1;" cx="64" cy="64" r="64"/>
	<path style="fill:#3AA68F;" d="M121.78,91.543l-18.621-46.598C101.269,39.733,96.358,36,90.522,36H38.142
		c-7.486,0-14.143,6.134-14.143,13.671v28.658c0,1.903,0.427,3.716,1.182,5.363l16.026,40.113c7.083,2.7,14.761,4.193,22.792,4.193
		C89.485,128,111.485,113.104,121.78,91.543z"/>
	<g>
		<path style="fill:#318C79;" d="M92.265,38H39.884c-7.486,0-14.459,6.134-14.459,13.671v28.658C25.425,87.866,32.397,94,39.884,94
			h52.381c7.486,0,13.16-6.134,13.16-13.671V51.671C105.425,44.134,99.751,38,92.265,38z"/>
	</g>
	<g>
		<path style="fill:#FFD464;" d="M90.265,36H37.884c-7.486,0-14.459,6.134-14.459,13.671v28.658C23.425,85.866,30.397,92,37.884,92
			h52.381c7.486,0,13.16-6.134,13.16-13.671V49.671C103.425,42.134,97.751,36,90.265,36z"/>
	</g>
	<g>
		<rect x="23.425" y="50" style="fill:#3B3B3B;" width="80" height="7"/>
	</g>
	<polygon style="fill:#45433E;" points="57.659,50 24,50 24,57 54.831,57 	"/>
</g>
</svg>
