<?xml version="1.0" encoding="iso-8859-1"?>
<!-- Generator: Adobe Illustrator 15.0.0, SVG Export Plug-In . SVG Version: 6.00 Build 0)  -->
<!DOCTYPE svg PUBLIC "-//W3C//DTD SVG 1.1//EN" "http://www.w3.org/Graphics/SVG/1.1/DTD/svg11.dtd">
<svg version="1.1" id="Layer_1" xmlns="http://www.w3.org/2000/svg" xmlns:xlink="http://www.w3.org/1999/xlink" x="0px" y="0px"
	 width="128px" height="128px" viewBox="0 0 128 128" style="enable-background:new 0 0 128 128;" xml:space="preserve">
<g>
	<circle style="fill:#88C5CC;" cx="64" cy="64" r="64"/>
	<path style="fill:#406A80;" d="M64,128c34.192,0,62.119-26.814,63.905-60.563L121,62L97,79L58,63L34,85L1.852,79.285
		C8.706,107.248,33.924,128,64,128z"/>
	<path style="fill:#F5F5F5;" d="M122.632,60.844c-0.639-0.9-1.887-1.116-2.788-0.476L96.741,76.732L58.759,61.15
		c-0.718-0.297-1.539-0.148-2.109,0.375L33.378,82.857L1.363,77.166c0.301,1.438,0.661,2.852,1.057,4.251l31.23,5.552
		C33.767,86.99,33.884,87,34,87c0.496,0,0.979-0.185,1.352-0.525l23.063-21.143L96.241,80.85c0.633,0.261,1.354,0.179,1.915-0.218
		l24-17C123.058,62.994,123.271,61.745,122.632,60.844z"/>
	<g>
		<circle style="fill:#F5F5F5;" cx="97" cy="79" r="4"/>
		<path style="fill:#CC584C;" d="M97,75c2.21,0,4,1.79,4,4s-1.79,4-4,4s-4-1.79-4-4S94.79,75,97,75 M97,73c-3.309,0-6,2.691-6,6
			s2.691,6,6,6s6-2.691,6-6S100.309,73,97,73L97,73z"/>
	</g>
	<g>
		<circle style="fill:#F5F5F5;" cx="121" cy="62" r="4"/>
		<path style="fill:#CC584C;" d="M121,58c2.21,0,4,1.79,4,4s-1.79,4-4,4s-4-1.79-4-4S118.79,58,121,58 M121,56c-3.309,0-6,2.691-6,6
			s2.691,6,6,6s6-2.691,6-6S124.309,56,121,56L121,56z"/>
	</g>
	<g>
		<circle style="fill:#F5F5F5;" cx="58" cy="63" r="4"/>
		<path style="fill:#CC584C;" d="M58,59c2.21,0,4,1.79,4,4s-1.79,4-4,4s-4-1.79-4-4S55.79,59,58,59 M58,57c-3.309,0-6,2.691-6,6
			s2.691,6,6,6s6-2.691,6-6S61.309,57,58,57L58,57z"/>
	</g>
	<g>
		<circle style="fill:#F5F5F5;" cx="34" cy="85" r="4"/>
		<path style="fill:#CC584C;" d="M34,81c2.21,0,4,1.79,4,4s-1.79,4-4,4s-4-1.79-4-4S31.79,81,34,81 M34,79c-3.309,0-6,2.691-6,6
			s2.691,6,6,6s6-2.691,6-6S37.309,79,34,79L34,79z"/>
	</g>
</g>
</svg>
