<?xml version="1.0" encoding="iso-8859-1"?>
<!-- Generator: Adobe Illustrator 15.0.0, SVG Export Plug-In . SVG Version: 6.00 Build 0)  -->
<!DOCTYPE svg PUBLIC "-//W3C//DTD SVG 1.1//EN" "http://www.w3.org/Graphics/SVG/1.1/DTD/svg11.dtd">
<svg version="1.1" id="Layer_1" xmlns="http://www.w3.org/2000/svg" xmlns:xlink="http://www.w3.org/1999/xlink" x="0px" y="0px"
	 width="128px" height="128px" viewBox="0 0 128 128" style="enable-background:new 0 0 128 128;" xml:space="preserve">
<g>
	<circle style="fill:#C2D5D8;" cx="64" cy="64" r="64"/>
	<path style="fill:#5AB3A3;" d="M71.684,127.523c5.957-0.714,11.664-2.229,17-4.464V49h-17V127.523z"/>
	<path style="fill:#3F8C7F;" d="M88.684,123.061c6.231-2.604,11.953-6.181,17-10.519V49h-17V123.061z"/>
	<polygon style="fill:#45998B;" points="106,49 89,54.97 72,49 89,43.029 	"/>
	<path style="fill:#CC665C;" d="M46.684,125.609c5.414,1.519,11.109,2.354,17,2.383V39h-17V125.609z"/>
	<path style="fill:#BF5347;" d="M63.684,127.992c0.106,0,0.211,0.008,0.316,0.008c5.773,0,11.363-0.777,16.684-2.211V39h-17V127.992
		z"/>
	<polygon style="fill:#CC584C;" points="81,39 64,44.97 47,39 64,33.029 	"/>
	<path style="fill:#FFDC80;" d="M21.684,111.994c5.029,4.438,10.754,8.1,17,10.793V54h-17V111.994z"/>
	<path style="fill:#E6BF5A;" d="M38.684,122.787c5.332,2.299,11.037,3.883,17,4.656V54h-17V122.787z"/>
	<polygon style="fill:#FFD464;" points="56,54 39,59.97 22,54 39,48.029 	"/>
</g>
</svg>
