<?xml version="1.0" encoding="iso-8859-1"?>
<!-- Generator: Adobe Illustrator 15.0.0, SVG Export Plug-In . SVG Version: 6.00 Build 0)  -->
<!DOCTYPE svg PUBLIC "-//W3C//DTD SVG 1.1//EN" "http://www.w3.org/Graphics/SVG/1.1/DTD/svg11.dtd">
<svg version="1.1" id="Layer_1" xmlns="http://www.w3.org/2000/svg" xmlns:xlink="http://www.w3.org/1999/xlink" x="0px" y="0px"
	 width="128px" height="128px" viewBox="0 0 128 128" style="enable-background:new 0 0 128 128;" xml:space="preserve">
<g>
	<circle style="fill:#88C5CC;" cx="64" cy="64" r="64"/>
	<path style="fill:#80B9BF;" d="M109.02,107.12c-0.127-0.347-0.263-0.688-0.414-1.021c-0.127-0.348-0.263-0.688-0.414-1.022
		c-0.127-0.348-0.262-0.688-0.414-1.021c-0.127-0.347-0.262-0.688-0.414-1.021c-0.123-0.34-0.256-0.674-0.403-1
		c-0.174-0.554-0.392-1.086-0.629-1.607c-0.126-0.347-0.263-0.688-0.414-1.021c-0.126-0.349-0.263-0.689-0.414-1.023
		c-0.126-0.346-0.262-0.688-0.414-1.02c-0.126-0.349-0.262-0.689-0.414-1.023c-0.126-0.347-0.262-0.688-0.414-1.021
		c-0.126-0.348-0.263-0.688-0.413-1.021c-0.125-0.345-0.261-0.684-0.41-1.014c-0.127-0.352-0.266-0.694-0.418-1.031
		c-0.127-0.347-0.263-0.688-0.414-1.021c-0.127-0.349-0.263-0.688-0.414-1.021c-0.127-0.348-0.262-0.688-0.414-1.021
		c-0.127-0.348-0.262-0.688-0.414-1.022c-0.127-0.347-0.262-0.688-0.414-1.021c-0.127-0.349-0.264-0.689-0.415-1.023
		c-0.125-0.344-0.259-0.682-0.409-1.012c-0.126-0.347-0.262-0.688-0.412-1.02c-0.172-0.55-0.388-1.079-0.624-1.597
		c-0.126-0.348-0.263-0.688-0.414-1.021c-0.126-0.348-0.263-0.688-0.415-1.021c-0.126-0.347-0.262-0.688-0.414-1.022
		c-0.126-0.347-0.262-0.688-0.414-1.021c-0.125-0.345-0.26-0.685-0.41-1.015c-0.127-0.35-0.264-0.693-0.416-1.029
		c-0.127-0.348-0.263-0.688-0.414-1.021c-0.127-0.348-0.264-0.688-0.414-1.021c-0.127-0.349-0.264-0.688-0.414-1.021
		c-0.127-0.348-0.264-0.688-0.416-1.021c-0.125-0.348-0.262-0.688-0.413-1.022c-0.125-0.344-0.259-0.683-0.41-1.014
		c-0.127-0.351-0.265-0.693-0.417-1.029c-0.126-0.348-0.262-0.688-0.414-1.022c-0.126-0.347-0.262-0.688-0.414-1.021
		c-0.126-0.347-0.263-0.688-0.414-1.021c-0.125-0.344-0.259-0.681-0.408-1.011c-0.173-0.55-0.389-1.079-0.625-1.598
		c-0.125-0.344-0.26-0.682-0.41-1.013c-0.127-0.352-0.264-0.694-0.416-1.03c-0.127-0.348-0.264-0.689-0.414-1.023
		c-0.127-0.346-0.264-0.688-0.414-1.021c-0.127-0.347-0.264-0.688-0.416-1.022c-0.125-0.348-0.262-0.688-0.414-1.022
		c-0.125-0.347-0.262-0.688-0.413-1.021c-0.126-0.348-0.263-0.688-0.414-1.021c-0.125-0.345-0.261-0.684-0.41-1.015
		c-0.127-0.35-0.265-0.692-0.417-1.028c-0.126-0.349-0.264-0.689-0.414-1.022c-0.127-0.347-0.263-0.688-0.414-1.021
		c-0.127-0.348-0.263-0.688-0.415-1.021c-0.126-0.348-0.262-0.688-0.414-1.021c-0.126-0.349-0.262-0.689-0.413-1.022
		c-0.123-0.34-0.257-0.675-0.404-1.002c-0.174-0.553-0.392-1.085-0.629-1.604c-0.125-0.349-0.262-0.688-0.414-1.021
		c-0.125-0.348-0.262-0.688-0.414-1.023c-0.125-0.346-0.262-0.688-0.414-1.021c-0.125-0.347-0.262-0.688-0.413-1.021
		c-0.126-0.349-0.263-0.688-0.414-1.021c-0.126-0.348-0.263-0.689-0.414-1.022c-0.125-0.345-0.261-0.683-0.41-1.015
		c-0.127-0.35-0.265-0.693-0.418-1.029c-0.126-0.348-0.262-0.688-0.414-1.022c-0.126-0.346-0.262-0.688-0.414-1.021
		c-0.126-0.347-0.262-0.688-0.414-1.021c-0.126-0.348-0.263-0.688-0.413-1.021c-0.127-0.348-0.264-0.688-0.414-1.021
		c-0.125-0.345-0.261-0.685-0.41-1.015c-0.127-0.351-0.265-0.693-0.418-1.03c-0.125-0.348-0.263-0.688-0.414-1.021
		c-0.127-0.348-0.263-0.688-0.414-1.021C75.193,22.846,70.057,19,64,19c-0.376,0-0.746-0.057-1.113-0.023
		C62.59,19,62.298,19,62.007,19C62.005,19,62,19,62,19v0.079c-7,0.973-12.001,6.827-12.001,13.882c0,1.217,0.163,2.396,0.455,3.523
		c0.036,0.157,0.062,0.319,0.103,0.477c0.26,1.152,0.658,2.254,1.188,3.283c0.257,0.903,0.604,1.771,1.029,2.593
		c0.254,0.889,0.597,1.741,1.016,2.55c0.255,0.888,0.596,1.738,1.014,2.545c0.008,0.029,0.018,0.058,0.025,0.086
		C53.811,48.107,53,48.959,53,50c0,0.32,0.083,0.619,0.219,0.888c-0.002,0.038-0.012,0.073-0.012,0.112
		c0,0.466,0.168,0.891,0.438,1.23c0.045,0.376,0.19,0.717,0.414,1c0.045,0.375,0.189,0.717,0.414,0.998
		c0.043,0.377,0.189,0.719,0.413,1.002c0.044,0.376,0.19,0.717,0.414,1c0.044,0.376,0.19,0.717,0.414,1
		c0.044,0.376,0.19,0.717,0.414,1c0.044,0.376,0.19,0.717,0.414,1c0.044,0.376,0.19,0.717,0.414,1
		c0.012,0.102,0.028,0.198,0.056,0.295C55.732,71.627,52.795,85.109,46,97h-1c-1.1,0-2,0.9-2,2c0,0.322,0.084,0.623,0.221,0.893
		c0.029,0.404,0.18,0.759,0.418,1.039c0.016,0.185,0.053,0.357,0.115,0.52c-0.455,0.367-0.754,0.923-0.754,1.55
		c0,0.316,0.081,0.611,0.213,0.878c0.012,0.396,0.135,0.786,0.344,1.122H41c-1.1,0-2,0.9-2,2c0,0.32,0.083,0.619,0.219,0.888
		c-0.002,0.038-0.012,0.073-0.012,0.112c0,0.466,0.168,0.891,0.438,1.23c0.045,0.376,0.19,0.717,0.414,1
		c0.045,0.375,0.189,0.717,0.414,0.999c0.043,0.376,0.189,0.718,0.413,1.001c0.044,0.376,0.19,0.717,0.414,1
		c0.044,0.376,0.19,0.717,0.414,1c0.044,0.376,0.19,0.717,0.414,1c0.044,0.376,0.19,0.717,0.414,1c0.044,0.376,0.19,0.717,0.414,1
		c0.044,0.376,0.19,0.717,0.414,1c0.044,0.375,0.188,0.717,0.413,0.999c0.044,0.376,0.189,0.718,0.414,1.001
		c0.044,0.376,0.189,0.717,0.414,1c0.043,0.376,0.189,0.717,0.414,1c0.043,0.376,0.189,0.717,0.414,1
		c0.043,0.376,0.189,0.717,0.414,1c0.043,0.376,0.189,0.717,0.414,1c0.012,0.1,0.047,0.188,0.072,0.28
		C51.952,127.121,57.872,128,64,128c17.902,0,34.08-7.359,45.695-19.208c-0.084-0.218-0.166-0.437-0.262-0.649
		C109.309,107.796,109.171,107.454,109.02,107.12z"/>
	<g>
		<path style="fill:#E6E6E6;" d="M70,41c-3,0-6,0-6,0s-3,0-6,0c0,9,0,35-12,56c9,0,18,0,18,0s9,0,18,0C70,76,70,50,70,41z"/>
		<path style="fill:#CCCCCC;" d="M70,41c-1.447,0-2.891,0-4,0c0,9,0,35,12,56c1.314,0,2.654,0,4,0C70,76,70,50,70,41z"/>
		<path style="fill:#E6E6E6;" d="M78,33c0,7.734-6.262,14-14,14c-7.73,0-14-6.266-14-14s6.27-14,14-14C71.738,19,78,25.266,78,33z"
			/>
		<path style="fill:#CCCCCC;" d="M64,19c-0.682,0-1.346,0.064-1.999,0.158C68.787,20.131,74,25.946,74,33
			s-5.213,12.869-11.999,13.841C62.654,46.936,63.318,47,64,47c7.738,0,14-6.266,14-14S71.738,19,64,19z"/>
		<path style="fill:#CC584C;" d="M73,46c0,1.1-0.9,2-2,2H57c-1.1,0-2-0.9-2-2l0,0c0-1.1,0.9-2,2-2h14C72.1,44,73,44.9,73,46L73,46z"
			/>
		<path style="fill:#263740;" d="M75,50c0,1.1-0.9,2-2,2H55c-1.1,0-2-0.9-2-2l0,0c0-1.1,0.9-2,2-2h18C74.1,48,75,48.9,75,50L75,50z"
			/>
		<path style="fill:#263740;" d="M85,99c0,1.1-0.9,2-2,2H45c-1.1,0-2-0.9-2-2l0,0c0-1.1,0.9-2,2-2h38C84.1,97,85,97.9,85,99L85,99z"
			/>
		<path style="fill:#1E2C33;" d="M83,97h-4c1.1,0,2,0.9,2,2s-0.9,2-2,2h4c1.1,0,2-0.9,2-2S84.1,97,83,97z"/>
		<path style="fill:#CC584C;" d="M85,103c0,1.1-0.9,2-2,2H45c-1.1,0-2-0.9-2-2l0,0c0-1.1,0.9-2,2-2h38C84.1,101,85,101.9,85,103
			L85,103z"/>
		<path style="fill:#263740;" d="M89,107c0,1.1-0.9,2-2,2H41c-1.1,0-2-0.9-2-2l0,0c0-1.1,0.9-2,2-2h46C88.1,105,89,105.9,89,107
			L89,107z"/>
		<path style="fill:#1E2C33;" d="M87,105h-4c1.1,0,2,0.9,2,2s-0.9,2-2,2h4c1.1,0,2-0.9,2-2S88.1,105,87,105z"/>
		<path style="fill:#B34D43;" d="M83,101h-4c1.1,0,2,0.9,2,2s-0.9,2-2,2h4c1.1,0,2-0.9,2-2S84.1,101,83,101z"/>
		<path style="fill:#1E2C33;" d="M73,48h-4c1.1,0,2,0.9,2,2s-0.9,2-2,2h4c1.1,0,2-0.9,2-2S74.1,48,73,48z"/>
		<path style="fill:#B34D43;" d="M71,44h-4c1.1,0,2,0.9,2,2s-0.9,2-2,2h4c1.1,0,2-0.9,2-2S72.1,44,71,44z"/>
	</g>
</g>
</svg>
