<?xml version="1.0" encoding="iso-8859-1"?>
<!-- Generator: Adobe Illustrator 15.0.0, SVG Export Plug-In . SVG Version: 6.00 Build 0)  -->
<!DOCTYPE svg PUBLIC "-//W3C//DTD SVG 1.1//EN" "http://www.w3.org/Graphics/SVG/1.1/DTD/svg11.dtd">
<svg version="1.1" id="Layer_1" xmlns="http://www.w3.org/2000/svg" xmlns:xlink="http://www.w3.org/1999/xlink" x="0px" y="0px"
	 width="128px" height="128px" viewBox="0 0 128 128" style="enable-background:new 0 0 128 128;" xml:space="preserve">
<g>
	<circle style="fill:#C2D5D8;" cx="64" cy="64" r="64"/>
	<path style="fill:#B7C9CC;" d="M71.395,29.098c-0.993-3.096-3.946-5.348-7.427-5.348c-0.237,0-0.474,0.013-0.706,0.035
		c-3.962,0.352-7.078,3.625-7.078,7.604c0,1.177,0.277,2.286,0.766,3.281c0.104,0.314,0.227,0.623,0.371,0.918
		c0.104,0.313,0.225,0.617,0.368,0.91c0.104,0.318,0.228,0.628,0.372,0.926c0.105,0.314,0.228,0.623,0.371,0.918
		c0.054,0.158,0.111,0.314,0.175,0.468L39.834,88H33c-0.553,0-1,0.447-1,1v14l8.254,20.43C47.6,126.367,55.606,128,64,128
		c15.608,0,29.906-5.594,41.014-14.878L71.395,29.098z"/>
	<path style="fill:#C23527;" d="M87.497,90c-0.006,0-0.014,0-0.021,0H40.522c-0.329,0-0.638-0.162-0.823-0.433
		c-0.188-0.271-0.229-0.616-0.111-0.925l20.227-53c0.147-0.388,0.52-0.644,0.935-0.644h6.504c0.415,0,0.786,0.256,0.936,0.644
		l20.158,52.826c0.097,0.153,0.151,0.335,0.151,0.53C88.497,89.553,88.05,90,87.497,90z"/>
	<path style="fill:#B33124;" d="M88.346,88.47L68.188,35.644C68.039,35.256,67.667,35,67.252,35h-4c0.415,0,0.786,0.256,0.936,0.644
		L84.346,88.47c0.097,0.153,0.151,0.335,0.151,0.53c0,0.553-0.447,1-1,1h3.979c0.007,0,0.015,0,0.021,0c0.553,0,1-0.447,1-1
		C88.497,88.805,88.441,88.623,88.346,88.47z"/>
	<path style="fill:#E6E6E6;" d="M94,104H33c-0.553,0-1-0.447-1-1V89c0-0.553,0.447-1,1-1h61c0.553,0,1,0.447,1,1v14
		C95,103.553,94.553,104,94,104z"/>
	<path style="fill:#B3B3B3;" d="M94,88h-4c0.553,0,1,0.447,1,1v14c0,0.553-0.447,1-1,1h4c0.553,0,1-0.447,1-1V89
		C95,88.447,94.553,88,94,88z"/>
	<path style="fill:#E6E6E6;" d="M63.968,39.026c-4.292,0-7.784-3.428-7.784-7.639c0-4.213,3.492-7.639,7.784-7.639
		c4.293,0,7.785,3.426,7.785,7.639C71.753,35.6,68.261,39.026,63.968,39.026z"/>
	<path style="fill:#B3B3B3;" d="M63.968,23.75c-0.471,0-0.929,0.048-1.376,0.127C66.229,24.518,69,27.638,69,31.389
		c0,3.75-2.771,6.871-6.408,7.512c0.447,0.078,0.905,0.127,1.376,0.127c4.293,0,7.785-3.428,7.785-7.639
		C71.753,27.176,68.261,23.75,63.968,23.75z"/>
</g>
</svg>
