<?xml version="1.0" encoding="iso-8859-1"?>
<!-- Generator: Adobe Illustrator 15.0.0, SVG Export Plug-In . SVG Version: 6.00 Build 0)  -->
<!DOCTYPE svg PUBLIC "-//W3C//DTD SVG 1.1//EN" "http://www.w3.org/Graphics/SVG/1.1/DTD/svg11.dtd">
<svg version="1.1" id="Layer_1" xmlns="http://www.w3.org/2000/svg" xmlns:xlink="http://www.w3.org/1999/xlink" x="0px" y="0px"
	 width="128px" height="128px" viewBox="0 0 128 128" style="enable-background:new 0 0 128 128;" xml:space="preserve">
<g>
	<circle style="fill:#2D4452;" cx="64" cy="64" r="64"/>
	<g>
		<g>
			<defs>
				<circle id="SVGID_1_" cx="64" cy="64" r="64"/>
			</defs>
			<clipPath id="SVGID_2_">
				<use xlink:href="#SVGID_1_"  style="overflow:visible;"/>
			</clipPath>
			<g style="clip-path:url(#SVGID_2_);">
				<rect x="39" y="50" style="fill:#F5F5F5;" width="50" height="84"/>
				<rect x="85" y="50" style="fill:#CCCCCC;" width="4" height="84"/>
				<rect x="39" y="51" style="fill:#FFFFFF;" width="4" height="83"/>
				<rect x="39" y="50" style="fill:#CCCCCC;" width="50" height="1"/>
				<path style="fill:#F5F5F5;" d="M25,38c-1.1,0-2-0.9-2-2v-8c0-1.1,0.9-2,2-2h78c1.1,0,2,0.9,2,2v8c0,1.1-0.9,2-2,2H25z"/>
				<path style="fill:#FFFFFF;" d="M25,36v-8c0-1.1,0.9-2,2-2h-2c-1.1,0-2,0.9-2,2v8c0,1.1,0.9,2,2,2h2C25.9,38,25,37.1,25,36z"/>
				<path style="fill:#E6E6E6;" d="M103,26h-4c1.1,0,2,0.9,2,2v8c0,1.1-0.9,2-2,2h4c1.1,0,2-0.9,2-2v-8C105,26.9,104.1,26,103,26z"
					/>
				<path style="fill:#E6E6E6;" d="M99,38v10c0,1.1-0.9,2-2,2H31c-1.1,0-2-0.9-2-2V38H99z"/>
				<path style="fill:#F5F5F5;" d="M31,48V38h-2v10c0,1.1,0.9,2,2,2h2C31.9,50,31,49.1,31,48z"/>
				<path style="fill:#CCCCCC;" d="M95,38v10c0,1.1-0.9,2-2,2h4c1.1,0,2-0.9,2-2V38H95z"/>
				<rect x="29" y="38" style="fill:#CCCCCC;" width="70" height="1"/>
				<path style="fill:#CCCCCC;" d="M52,60v63c0,1.656-1.344,3-3,3s-3-1.344-3-3V60c0-1.656,1.344-3,3-3S52,58.344,52,60z M80,57
					c-1.656,0-3,1.344-3,3v63c0,1.656,1.344,3,3,3s3-1.344,3-3V60C83,58.344,81.656,57,80,57z M64,57c-1.656,0-3,1.344-3,3v63
					c0,1.656,1.344,3,3,3s3-1.344,3-3V60C67,58.344,65.656,57,64,57z"/>
				<g>
					<path style="fill:#FFFFFF;" d="M49,57c-0.172,0-0.336,0.023-0.5,0.051C49.918,57.289,51,58.516,51,60v63
						c0,1.484-1.082,2.711-2.5,2.949C48.664,125.977,48.828,126,49,126c1.656,0,3-1.344,3-3V60C52,58.344,50.656,57,49,57z"/>
					<path style="fill:#FFFFFF;" d="M64,57c-0.172,0-0.336,0.023-0.5,0.051C64.918,57.289,66,58.516,66,60v63
						c0,1.484-1.082,2.711-2.5,2.949C63.664,125.977,63.828,126,64,126c1.656,0,3-1.344,3-3V60C67,58.344,65.656,57,64,57z"/>
					<path style="fill:#FFFFFF;" d="M80,57c-0.172,0-0.336,0.023-0.5,0.051C80.918,57.289,82,58.516,82,60v63
						c0,1.484-1.082,2.711-2.5,2.949C79.664,125.977,79.828,126,80,126c1.656,0,3-1.344,3-3V60C83,58.344,81.656,57,80,57z"/>
				</g>
				<g>
					<path style="fill:#B3B3B3;" d="M48,123V60c0-1.305,0.838-2.402,2-2.816C49.686,57.073,49.353,57,49,57c-1.656,0-3,1.344-3,3v63
						c0,1.656,1.344,3,3,3c0.353,0,0.686-0.072,1-0.184C48.838,125.402,48,124.305,48,123z"/>
					<path style="fill:#B3B3B3;" d="M79,123V60c0-1.305,0.838-2.402,2-2.816C80.686,57.073,80.353,57,80,57c-1.656,0-3,1.344-3,3v63
						c0,1.656,1.344,3,3,3c0.353,0,0.686-0.072,1-0.184C79.838,125.402,79,124.305,79,123z"/>
					<path style="fill:#B3B3B3;" d="M63,123V60c0-1.305,0.838-2.402,2-2.816C64.686,57.073,64.353,57,64,57c-1.656,0-3,1.344-3,3v63
						c0,1.656,1.344,3,3,3c0.353,0,0.686-0.072,1-0.184C63.838,125.402,63,124.305,63,123z"/>
				</g>
			</g>
		</g>
	</g>
</g>
</svg>
