<?xml version="1.0" encoding="iso-8859-1"?>
<!-- Generator: Adobe Illustrator 15.0.0, SVG Export Plug-In . SVG Version: 6.00 Build 0)  -->
<!DOCTYPE svg PUBLIC "-//W3C//DTD SVG 1.1//EN" "http://www.w3.org/Graphics/SVG/1.1/DTD/svg11.dtd">
<svg version="1.1" id="Layer_1" xmlns="http://www.w3.org/2000/svg" xmlns:xlink="http://www.w3.org/1999/xlink" x="0px" y="0px"
	 width="128px" height="128px" viewBox="0 0 128 128" style="enable-background:new 0 0 128 128;" xml:space="preserve">
<g>
	<circle style="fill:#F2CF61;" cx="64" cy="64" r="64"/>
	<path style="fill:#E6C45C;" d="M122.493,89.968l-15.61-38.479c-0.007-0.071,0-0.149-0.021-0.213l0,0
		c-0.079-0.241-0.262-0.423-0.532-0.529c-0.021-0.009-0.046-0.014-0.069-0.022c-0.109-0.036-0.23-0.06-0.365-0.071
		c-0.043-0.004-0.082-0.009-0.127-0.01c-0.172-0.004-0.354,0.004-0.558,0.04l-14.962,2.641c-0.036-0.103-0.084-0.193-0.145-0.271
		c-0.031-0.206-0.104-0.376-0.207-0.512c-0.03-0.206-0.104-0.376-0.207-0.512c-0.03-0.206-0.104-0.376-0.207-0.512
		c-0.03-0.206-0.104-0.376-0.207-0.512c-0.03-0.206-0.104-0.376-0.207-0.512c-0.03-0.206-0.104-0.376-0.207-0.512
		c-0.03-0.206-0.104-0.376-0.207-0.513c-0.03-0.206-0.104-0.376-0.207-0.512c-0.03-0.206-0.104-0.376-0.207-0.512
		c-0.03-0.206-0.104-0.376-0.207-0.512c-0.03-0.206-0.104-0.376-0.207-0.512c-0.03-0.206-0.104-0.376-0.207-0.512
		c-0.029-0.205-0.102-0.375-0.206-0.511c-0.029-0.207-0.103-0.377-0.207-0.514c-0.029-0.206-0.103-0.376-0.207-0.512
		c-0.029-0.206-0.103-0.376-0.207-0.512c-0.028-0.206-0.103-0.376-0.207-0.513c-0.028-0.206-0.103-0.376-0.207-0.512
		c-0.028-0.206-0.103-0.376-0.207-0.512c-0.028-0.206-0.103-0.376-0.207-0.512c-0.028-0.206-0.103-0.376-0.207-0.512
		c-0.028-0.206-0.103-0.376-0.207-0.512c-0.028-0.206-0.103-0.376-0.207-0.512c-0.028-0.206-0.103-0.376-0.207-0.512
		c-0.028-0.206-0.103-0.376-0.206-0.512c-0.029-0.206-0.104-0.376-0.207-0.512c-0.029-0.206-0.104-0.376-0.207-0.513
		c-0.029-0.205-0.103-0.375-0.207-0.511c-0.029-0.207-0.102-0.377-0.207-0.514c-0.029-0.206-0.103-0.376-0.207-0.512
		c-0.029-0.206-0.103-0.376-0.207-0.512c-0.029-0.206-0.103-0.376-0.207-0.512c-0.029-0.206-0.103-0.376-0.207-0.512
		c-0.029-0.206-0.103-0.376-0.207-0.512c-0.029-0.206-0.103-0.376-0.207-0.512c-0.029-0.206-0.103-0.376-0.207-0.512
		c-0.029-0.206-0.103-0.376-0.207-0.513c-0.029-0.206-0.103-0.376-0.207-0.512c-0.029-0.206-0.103-0.376-0.207-0.512
		c-0.029-0.206-0.102-0.376-0.206-0.512c-0.03-0.206-0.103-0.376-0.207-0.512c-0.03-0.206-0.103-0.376-0.207-0.512
		c-0.029-0.205-0.103-0.375-0.206-0.511c-0.029-0.207-0.102-0.377-0.207-0.514c-0.029-0.206-0.104-0.376-0.207-0.512
		c-0.029-0.206-0.104-0.376-0.207-0.512c-0.029-0.206-0.104-0.376-0.207-0.512c-0.029-0.206-0.104-0.376-0.207-0.513
		c-0.029-0.206-0.104-0.376-0.207-0.512c-0.029-0.206-0.104-0.376-0.207-0.512c-0.029-0.206-0.104-0.376-0.207-0.512
		c-0.029-0.206-0.104-0.376-0.207-0.512c-0.029-0.206-0.104-0.376-0.207-0.512c-0.029-0.206-0.104-0.376-0.207-0.512
		c-0.029-0.206-0.103-0.376-0.207-0.512c-0.029-0.206-0.103-0.376-0.207-0.512c-0.029-0.206-0.103-0.376-0.207-0.512
		c-0.029-0.206-0.102-0.375-0.205-0.511c-0.029-0.207-0.103-0.377-0.207-0.514c-0.031-0.206-0.104-0.376-0.207-0.512
		c-0.031-0.206-0.104-0.376-0.207-0.512c-0.03-0.206-0.104-0.376-0.207-0.512c-0.03-0.206-0.104-0.376-0.207-0.512
		c-0.03-0.206-0.104-0.376-0.207-0.512c-0.104-0.711-0.68-1.046-1.502-0.758l-0.117,0.054l0,0l-4.996,2.287
		c-1.064,0.372-2.146,1.646-2.401,2.831l-7.3,33.884L40.855,62.04l-2.069,0.365c-0.08-0.145-0.165-0.283-0.251-0.422
		c-0.087-0.142-0.176-0.282-0.27-0.418c-0.113-0.169-0.232-0.333-0.355-0.496c-0.098-0.131-0.195-0.262-0.299-0.388
		c-0.133-0.163-0.273-0.318-0.416-0.473c-0.104-0.114-0.202-0.231-0.312-0.341c-0.177-0.18-0.364-0.35-0.552-0.519
		c-2.65-2.376-6.318-3.563-10.098-2.897c-6.526,1.152-10.883,7.377-9.731,13.902c0.132,0.748,0.354,1.453,0.612,2.136
		c0.058,0.177,0.142,0.339,0.207,0.512c0.058,0.177,0.142,0.339,0.207,0.513c0.058,0.176,0.142,0.338,0.207,0.512
		c0.058,0.177,0.142,0.339,0.207,0.512c0.058,0.177,0.142,0.339,0.207,0.512c0.058,0.176,0.141,0.335,0.205,0.506
		c0.058,0.18,0.142,0.344,0.207,0.519c0.059,0.178,0.143,0.34,0.207,0.514c0.059,0.177,0.143,0.339,0.207,0.513
		c0.059,0.176,0.143,0.338,0.207,0.512c0.059,0.177,0.143,0.339,0.207,0.512c0.059,0.177,0.143,0.339,0.207,0.512
		c0.059,0.178,0.143,0.34,0.207,0.512c0.059,0.178,0.143,0.34,0.207,0.513c0.059,0.177,0.143,0.339,0.207,0.512
		c0.059,0.177,0.143,0.339,0.207,0.513c0.059,0.176,0.143,0.338,0.207,0.51c0.059,0.179,0.143,0.341,0.207,0.515
		c0.059,0.177,0.143,0.339,0.207,0.512c0.059,0.177,0.143,0.339,0.207,0.513c0.059,0.175,0.141,0.334,0.205,0.506
		c0.059,0.179,0.143,0.344,0.208,0.519c0.058,0.177,0.142,0.339,0.207,0.513c0.058,0.176,0.142,0.338,0.207,0.512
		c0.058,0.177,0.142,0.339,0.207,0.512c0.058,0.177,0.142,0.339,0.207,0.512c0.058,0.178,0.142,0.34,0.207,0.512
		c0.058,0.178,0.142,0.34,0.207,0.513c0.058,0.177,0.142,0.34,0.207,0.513c0.058,0.178,0.142,0.34,0.207,0.512
		c0.058,0.178,0.142,0.34,0.207,0.513c0.058,0.177,0.142,0.339,0.206,0.512c0.059,0.177,0.143,0.339,0.207,0.513
		c0.059,0.176,0.143,0.338,0.207,0.512c0.059,0.177,0.143,0.339,0.207,0.512c0.059,0.175,0.141,0.334,0.205,0.505
		c0.059,0.179,0.143,0.345,0.209,0.521c0.058,0.177,0.142,0.338,0.207,0.512c0.058,0.177,0.142,0.34,0.207,0.513
		c0.058,0.177,0.142,0.339,0.207,0.513c0.058,0.176,0.142,0.338,0.207,0.512c0.058,0.177,0.142,0.339,0.207,0.512
		c0.058,0.177,0.142,0.339,0.207,0.512c0.057,0.178,0.142,0.34,0.207,0.512c0.057,0.178,0.141,0.34,0.207,0.512
		c0.057,0.178,0.141,0.34,0.207,0.514c0.057,0.178,0.141,0.34,0.206,0.512c0.058,0.178,0.142,0.34,0.207,0.513
		c0.058,0.177,0.142,0.34,0.207,0.513c0.058,0.178,0.142,0.339,0.207,0.512c0.058,0.176,0.142,0.336,0.205,0.506
		c0.058,0.18,0.144,0.345,0.208,0.52c0.059,0.177,0.143,0.339,0.207,0.512c0.059,0.178,0.143,0.34,0.207,0.512
		c0.059,0.178,0.143,0.34,0.207,0.512c0.059,0.178,0.143,0.34,0.207,0.513c0.059,0.177,0.143,0.34,0.207,0.513
		c0.059,0.178,0.143,0.34,0.207,0.512c0.058,0.178,0.143,0.341,0.207,0.514c0.058,0.177,0.142,0.339,0.207,0.512
		c0.058,0.178,0.142,0.34,0.207,0.512c0.058,0.178,0.142,0.34,0.207,0.513c0.058,0.177,0.142,0.339,0.207,0.512
		c0.058,0.177,0.142,0.339,0.207,0.511c0.058,0.178,0.142,0.34,0.207,0.514c0.058,0.177,0.142,0.34,0.207,0.513
		c0.058,0.175,0.14,0.335,0.205,0.505c0.058,0.18,0.142,0.344,0.207,0.52c0.059,0.177,0.143,0.339,0.207,0.512
		c0.059,0.177,0.143,0.339,0.207,0.512c0.059,0.178,0.143,0.34,0.207,0.512c0.059,0.178,0.143,0.34,0.207,0.513
		c0.059,0.177,0.143,0.339,0.207,0.511c0.059,0.178,0.143,0.34,0.207,0.514c0.059,0.176,0.143,0.34,0.207,0.512
		c0.059,0.178,0.143,0.34,0.207,0.513c0.059,0.177,0.143,0.339,0.207,0.512c0.059,0.177,0.143,0.341,0.207,0.513
		c0.059,0.178,0.143,0.34,0.207,0.513c0.059,0.177,0.143,0.339,0.207,0.512c0.059,0.177,0.143,0.339,0.207,0.513
		c0.059,0.174,0.141,0.334,0.205,0.506c0.059,0.179,0.143,0.343,0.208,0.518c0.058,0.178,0.142,0.34,0.207,0.514
		c0.058,0.178,0.142,0.34,0.207,0.512c0.058,0.178,0.142,0.341,0.207,0.514c0.058,0.177,0.142,0.339,0.207,0.512
		c0.058,0.178,0.142,0.34,0.207,0.514c0.058,0.177,0.142,0.338,0.207,0.512c0.058,0.177,0.142,0.339,0.207,0.512
		c0.058,0.178,0.142,0.339,0.207,0.512c0.058,0.178,0.142,0.34,0.207,0.512c0.058,0.178,0.142,0.34,0.206,0.514
		c0.059,0.177,0.143,0.339,0.207,0.512c0.059,0.178,0.143,0.34,0.207,0.514c0.059,0.177,0.143,0.339,0.207,0.512
		c0.051,0.15,0.117,0.289,0.177,0.434C45.325,125.877,54.412,128,64,128C90.098,128,112.532,112.37,122.493,89.968z"/>
	<g>
		<path style="fill:#E6E6E6;" d="M35.93,62.91l69.279-12.227c1.337-0.236,2.037,0.441,1.555,1.5l-2.934,5.092
			c-0.482,1.061-1.971,2.124-3.307,2.359L37.32,70.788L35.93,62.91z"/>
		<path style="fill:#CCCCCC;" d="M42.107,65.836c-0.234-1.334-0.662-2.606-1.252-3.796l-4.926,0.87l1.391,7.878l4.898-0.865
			C42.378,68.593,42.354,67.221,42.107,65.836z"/>
		<path style="fill:#FFFFFF;" d="M70.359,57.631l36.502-6.355c-0.163-0.496-0.762-0.751-1.652-0.593l-35.527,6.27L70.359,57.631z"/>
		<polygon style="fill:#CCCCCC;" points="60.508,66.695 68.977,65.201 70.805,56.754 62.326,58.251 		"/>
		<g>
			<path style="fill:#406A80;" d="M40.141,66.184c-1.152-6.525-7.377-10.884-13.904-9.731c-6.526,1.152-10.883,7.377-9.731,13.903
				c1.152,6.525,7.377,10.884,13.903,9.731C36.936,78.936,41.291,72.709,40.141,66.184z M21.25,69.518
				c-0.688-3.899,1.925-7.632,5.823-8.32c3.899-0.688,7.632,1.925,8.319,5.824c0.688,3.898-1.925,7.631-5.824,8.319
				C25.671,76.029,21.938,73.416,21.25,69.518z"/>
			<g>
				<path style="fill:#395F73;" d="M32.738,62.623c-1.581-2.044-4.213-3.169-6.93-2.69c-3.899,0.688-6.514,4.42-5.824,8.319
					c0.32,1.814,1.305,3.344,2.654,4.398c-0.688-0.89-1.182-1.951-1.39-3.133c-0.688-3.899,1.925-7.632,5.823-8.32
					C29.158,60.83,31.189,61.411,32.738,62.623z"/>
				<path style="fill:#395F73;" d="M40.141,66.184c-0.508-2.865-1.99-5.311-4.048-7.057c1.392,1.591,2.388,3.56,2.781,5.792
					c1.151,6.526-3.205,12.751-9.731,13.903c-3.662,0.646-7.228-0.443-9.856-2.676c2.674,3.062,6.827,4.698,11.122,3.94
					C36.936,78.936,41.291,72.709,40.141,66.184z"/>
			</g>
		</g>
		<path style="fill:#E6E6E6;" d="M63.536,82.393l13.287-61.405c0.258-1.185-0.404-1.85-1.468-1.477l-5.114,2.341
			c-1.064,0.372-2.146,1.646-2.401,2.831L55.35,82.657L63.536,82.393z"/>
		<path style="fill:#CCCCCC;" d="M55.35,82.656l8.188-0.266l0.833-3.847c-0.142-0.036-0.277-0.082-0.421-0.114
			c-2.781-0.601-5.543-0.18-7.904,1.002L55.35,82.656z"/>
		<circle style="fill:#CC584C;" cx="63.848" cy="62.044" r="3"/>
		<path style="fill:#F5F5F5;" d="M69.154,56.427l7.669-35.439c0.258-1.185-0.404-1.85-1.468-1.477l-0.119,0.054
			c-0.149,0.287-0.264,0.584-0.325,0.875l-7.468,34.276L69.154,56.427z"/>
		<g>
			<path style="fill:#406A80;" d="M72.141,90.184c-1.152-6.525-7.377-10.884-13.904-9.731c-6.526,1.151-10.883,7.377-9.731,13.903
				c1.152,6.525,7.377,10.884,13.903,9.731C68.936,102.936,73.291,96.709,72.141,90.184z M53.25,93.518
				c-0.688-3.899,1.925-7.632,5.823-8.32c3.899-0.688,7.632,1.925,8.319,5.824c0.688,3.898-1.925,7.631-5.824,8.319
				C57.671,100.029,53.938,97.416,53.25,93.518z"/>
			<g>
				<path style="fill:#395F73;" d="M64.738,86.623c-1.581-2.044-4.213-3.169-6.93-2.689c-3.899,0.688-6.514,4.42-5.824,8.318
					c0.32,1.814,1.305,3.344,2.654,4.398c-0.688-0.89-1.182-1.951-1.39-3.133c-0.688-3.899,1.925-7.632,5.823-8.32
					C61.158,84.83,63.189,85.411,64.738,86.623z"/>
				<path style="fill:#395F73;" d="M72.141,90.184c-0.508-2.865-1.99-5.311-4.048-7.057c1.392,1.591,2.388,3.561,2.781,5.792
					c1.151,6.526-3.205,12.751-9.731,13.903c-3.662,0.646-7.228-0.443-9.856-2.676c2.674,3.062,6.828,4.698,11.122,3.94
					C68.936,102.936,73.291,96.709,72.141,90.184z"/>
			</g>
		</g>
	</g>
</g>
</svg>
