<?xml version="1.0" encoding="iso-8859-1"?>
<!-- Generator: Adobe Illustrator 15.0.0, SVG Export Plug-In . SVG Version: 6.00 Build 0)  -->
<!DOCTYPE svg PUBLIC "-//W3C//DTD SVG 1.1//EN" "http://www.w3.org/Graphics/SVG/1.1/DTD/svg11.dtd">
<svg version="1.1" id="Layer_1" xmlns="http://www.w3.org/2000/svg" xmlns:xlink="http://www.w3.org/1999/xlink" x="0px" y="0px"
	 width="128px" height="128px" viewBox="0 0 128 128" style="enable-background:new 0 0 128 128;" xml:space="preserve">
<g>
	<path style="fill:#88C5CC;" d="M64,0C28.654,0,0,28.654,0,64s28.654,64,64,64c35.346,0,64-28.654,64-64S99.346,0,64,0z"/>
	<path style="fill:#2D4452;" d="M64,0C28.654,0,0,28.654,0,64s28.654,64,64,64c35.346,0,64-28.654,64-64S99.346,0,64,0z"/>
	<path style="fill:#FFF1CC;" d="M64,128c35.346,0,64-28.654,64-64c0-8.871-1.807-17.318-5.068-25H41c-2.2,0-4,1.8-4,4v79.025
		C45.206,125.852,54.35,128,64,128z"/>
	<path style="fill:#CCC1A3;" d="M114.354,95.311l-12.105-12.104c0.24-0.174,0.486-0.333,0.73-0.463
		c2.09-1.108,2.948-3.753,1.91-5.878c-1.039-2.125-1.039-5.604,0-7.729c1.038-2.125,0.18-4.77-1.91-5.878
		c-2.088-1.107-4.131-3.921-4.539-6.25c-0.41-2.329-2.66-3.964-5-3.633c-2.342,0.332-5.646-0.743-7.349-2.387
		c-1.7-1.646-4.479-1.646-6.182,0c-1.699,1.644-5.007,2.718-7.347,2.387c-2.342-0.331-4.592,1.304-5,3.633
		c-0.41,2.329-2.453,5.143-4.542,6.25c-2.09,1.108-2.948,3.753-1.91,5.878c1.039,2.125,1.039,5.604,0,7.729
		c-1.038,2.125-0.18,4.77,1.91,5.878c0.244,0.13,0.49,0.289,0.731,0.463L51.646,95.311c-0.777,0.778-0.563,1.699,0.482,2.048
		l8.934,2.979c1.045,0.349,2.183,1.486,2.529,2.53l2.979,8.933c0.349,1.044,1.27,1.263,2.048,0.483L83,97.898l14.382,14.383
		c0.778,0.776,1.699,0.561,2.048-0.483l2.979-8.933c0.349-1.045,1.483-2.183,2.528-2.53l8.935-2.978
		C114.914,97.009,115.131,96.088,114.354,95.311z"/>
	<g>
		<g>
			<path style="fill:#263740;" d="M110.354,93.311c0.777,0.778,0.563,1.699-0.481,2.048l-8.935,2.979
				c-1.045,0.349-2.183,1.486-2.528,2.53L95.43,109.8c-0.349,1.044-1.27,1.263-2.048,0.483L73.583,90.482
				c-0.776-0.776-0.776-2.052,0-2.826l14.144-14.144c0.776-0.778,2.051-0.778,2.828,0L110.354,93.311z"/>
			<path style="fill:#263740;" d="M47.646,93.311c-0.777,0.778-0.563,1.699,0.482,2.048l8.934,2.979
				c1.045,0.349,2.183,1.486,2.529,2.53l2.979,8.933c0.349,1.044,1.27,1.263,2.048,0.483l19.799-19.801
				c0.776-0.776,0.776-2.052,0-2.826L70.273,73.513c-0.776-0.778-2.051-0.778-2.828,0L47.646,93.311z"/>
		</g>
		<path style="fill:#CC584C;" d="M75.909,48.99c1.7-1.646,4.479-1.646,6.182,0c1.699,1.644,5.007,2.718,7.347,2.387
			c2.342-0.331,4.592,1.305,5,3.633c0.41,2.329,2.453,5.144,4.541,6.25c2.09,1.108,2.948,3.754,1.91,5.879
			c-1.039,2.125-1.039,5.603,0,7.728c1.038,2.125,0.18,4.77-1.91,5.878c-2.088,1.105-4.131,3.921-4.541,6.25
			c-0.408,2.327-2.658,3.964-5,3.633c-2.34-0.332-5.646,0.743-7.347,2.388c-1.7,1.646-4.479,1.646-6.182,0
			c-1.699-1.645-5.007-2.719-7.347-2.388c-2.342,0.331-4.592-1.306-5-3.633c-0.41-2.329-2.453-5.145-4.541-6.25
			c-2.09-1.108-2.948-3.753-1.91-5.878c1.039-2.125,1.039-5.603,0-7.728s-0.18-4.771,1.91-5.879c2.088-1.106,4.131-3.921,4.541-6.25
			c0.408-2.328,2.659-3.964,5-3.633C70.902,51.708,74.21,50.634,75.909,48.99z"/>
		<circle style="fill:#F2CF61;" cx="79" cy="71" r="15"/>
	</g>
</g>
</svg>
