<?xml version="1.0" encoding="iso-8859-1"?>
<!-- Generator: Adobe Illustrator 15.0.0, SVG Export Plug-In . SVG Version: 6.00 Build 0)  -->
<!DOCTYPE svg PUBLIC "-//W3C//DTD SVG 1.1//EN" "http://www.w3.org/Graphics/SVG/1.1/DTD/svg11.dtd">
<svg version="1.1" id="Layer_1" xmlns="http://www.w3.org/2000/svg" xmlns:xlink="http://www.w3.org/1999/xlink" x="0px" y="0px"
	 width="128px" height="128px" viewBox="0 0 128 128" style="enable-background:new 0 0 128 128;" xml:space="preserve">
<g>
	<circle style="fill:#2D4452;" cx="64" cy="64" r="64"/>
	<path style="fill:#233540;" d="M120.486,94.094c-0.035-0.09-0.07-0.179-0.107-0.268c-0.07-0.174-0.138-0.349-0.21-0.521
		c-0.067-0.168-0.134-0.34-0.204-0.507c-0.07-0.173-0.138-0.348-0.21-0.519c-0.065-0.163-0.128-0.327-0.196-0.488
		c-0.072-0.179-0.142-0.357-0.217-0.537c-0.068-0.168-0.134-0.338-0.203-0.505c-0.07-0.173-0.139-0.349-0.211-0.521
		c-0.068-0.168-0.134-0.338-0.203-0.506c-0.069-0.17-0.137-0.343-0.207-0.513c-0.069-0.173-0.139-0.348-0.211-0.519
		c-0.067-0.17-0.134-0.341-0.203-0.506c-0.068-0.175-0.139-0.351-0.211-0.521c-0.065-0.168-0.133-0.338-0.203-0.505
		c-0.068-0.173-0.139-0.349-0.211-0.521c-0.065-0.168-0.133-0.338-0.203-0.506c-0.068-0.173-0.139-0.348-0.211-0.52
		c-0.065-0.168-0.133-0.338-0.203-0.506c-0.067-0.17-0.137-0.343-0.206-0.513c-0.066-0.168-0.134-0.336-0.201-0.502
		c-0.069-0.176-0.14-0.352-0.211-0.521c-0.07-0.173-0.14-0.35-0.21-0.52c-0.068-0.171-0.137-0.341-0.204-0.508
		c-0.069-0.173-0.14-0.348-0.21-0.52c-0.068-0.168-0.137-0.341-0.204-0.506c-0.069-0.175-0.14-0.349-0.21-0.521
		c-0.068-0.169-0.137-0.339-0.204-0.506c-0.067-0.171-0.137-0.343-0.207-0.514c-0.067-0.173-0.139-0.35-0.21-0.52
		c-0.066-0.17-0.136-0.34-0.204-0.507c-0.067-0.173-0.138-0.348-0.21-0.521c-0.066-0.168-0.134-0.338-0.204-0.504
		c-0.067-0.174-0.138-0.349-0.21-0.52c-0.066-0.169-0.134-0.339-0.203-0.506c-0.068-0.174-0.139-0.349-0.211-0.521
		c-0.063-0.162-0.128-0.326-0.193-0.487c-0.072-0.177-0.143-0.354-0.215-0.529c-0.07-0.173-0.14-0.349-0.211-0.521
		c-0.066-0.168-0.135-0.338-0.203-0.506c-0.07-0.173-0.14-0.349-0.209-0.52c-0.068-0.169-0.137-0.341-0.205-0.506
		c-0.07-0.175-0.14-0.351-0.209-0.521c-0.068-0.168-0.137-0.338-0.205-0.505c-0.069-0.173-0.139-0.347-0.209-0.52
		c-0.068-0.17-0.137-0.34-0.205-0.506c-0.069-0.174-0.139-0.349-0.209-0.521c-0.068-0.169-0.135-0.339-0.205-0.506
		c-0.068-0.171-0.135-0.343-0.207-0.514c-0.069-0.174-0.137-0.348-0.209-0.52c-0.068-0.17-0.135-0.34-0.205-0.507
		c-0.066-0.167-0.131-0.335-0.201-0.501c-0.07-0.177-0.139-0.353-0.211-0.523c-0.07-0.172-0.137-0.348-0.21-0.519
		c-0.067-0.169-0.134-0.339-0.204-0.506c-0.07-0.174-0.137-0.348-0.21-0.52c-0.067-0.171-0.134-0.341-0.204-0.507
		c-0.068-0.172-0.137-0.345-0.207-0.514c-0.07-0.173-0.139-0.348-0.21-0.521c-0.067-0.168-0.134-0.338-0.204-0.505
		c-0.07-0.173-0.139-0.347-0.21-0.519c-0.067-0.168-0.134-0.339-0.204-0.507c-0.07-0.174-0.137-0.348-0.21-0.52
		c-0.067-0.169-0.134-0.339-0.204-0.506c-0.07-0.173-0.137-0.348-0.21-0.521c-0.067-0.168-0.134-0.338-0.204-0.506
		c-0.065-0.164-0.131-0.332-0.199-0.496c-0.07-0.178-0.142-0.356-0.217-0.534c-0.067-0.168-0.134-0.339-0.203-0.507
		c-0.069-0.172-0.139-0.347-0.211-0.519c-0.067-0.168-0.134-0.338-0.203-0.506c-0.068-0.173-0.138-0.347-0.211-0.52
		c-0.066-0.17-0.133-0.34-0.203-0.506c-0.068-0.174-0.139-0.348-0.211-0.52c-0.065-0.169-0.133-0.339-0.203-0.506
		c-0.067-0.172-0.137-0.347-0.209-0.517c-0.066-0.171-0.135-0.345-0.207-0.515c-0.067-0.17-0.135-0.341-0.207-0.51
		c-0.066-0.173-0.135-0.346-0.206-0.516c-0.068-0.17-0.136-0.342-0.207-0.511c-0.067-0.171-0.136-0.343-0.207-0.513
		c-0.063-0.165-0.13-0.331-0.197-0.495c-0.071-0.177-0.144-0.354-0.216-0.531c-0.068-0.17-0.137-0.342-0.205-0.51
		c-0.068-0.172-0.139-0.345-0.208-0.515c-0.069-0.171-0.138-0.343-0.206-0.511c-0.068-0.172-0.138-0.344-0.207-0.514
		c-0.068-0.171-0.138-0.344-0.208-0.515C97.402,36.918,84.963,27.896,70.43,27.896c-16.741,0-30.718,11.972-34.004,27.898
		c-0.104-0.002-0.208-0.002-0.313-0.002c-0.453,0-0.901,0.02-1.351,0.045c-0.114,0.009-0.229,0.02-0.344,0.026
		c-0.36,0.027-0.718,0.063-1.073,0.106c-0.086,0.012-0.172,0.021-0.258,0.032c-10.779,1.505-19.084,10.721-19.084,21.899
		c0,3.087,0.635,6.021,1.777,8.688c0.065,0.168,0.132,0.339,0.203,0.506c0.066,0.171,0.135,0.344,0.207,0.513
		c0.067,0.174,0.137,0.348,0.211,0.52c0.065,0.17,0.131,0.339,0.203,0.507c0.067,0.175,0.137,0.349,0.211,0.521
		c0.063,0.163,0.127,0.327,0.194,0.488c0.071,0.179,0.142,0.357,0.218,0.534c0.066,0.171,0.133,0.34,0.205,0.507
		c0.066,0.174,0.137,0.348,0.209,0.521c0.066,0.17,0.133,0.338,0.203,0.506c0.068,0.174,0.139,0.349,0.21,0.521
		c0.067,0.169,0.134,0.338,0.204,0.505c0.068,0.171,0.135,0.345,0.207,0.513c0.068,0.174,0.139,0.349,0.21,0.521
		c0.067,0.169,0.134,0.338,0.204,0.505c0.066,0.174,0.139,0.349,0.21,0.521c0.065,0.17,0.134,0.339,0.204,0.507
		c0.066,0.174,0.139,0.348,0.21,0.52c0.065,0.169,0.132,0.338,0.204,0.505c0.066,0.175,0.137,0.349,0.21,0.521
		c0.063,0.161,0.127,0.325,0.194,0.487c0.07,0.177,0.141,0.354,0.216,0.528c0.067,0.174,0.136,0.349,0.21,0.521
		c0.066,0.169,0.132,0.339,0.203,0.505c0.068,0.176,0.137,0.35,0.211,0.521c0.066,0.169,0.132,0.338,0.203,0.506
		c0.068,0.174,0.137,0.349,0.211,0.521c0.066,0.17,0.132,0.339,0.203,0.506c0.068,0.174,0.137,0.348,0.209,0.52
		c0.068,0.17,0.134,0.339,0.205,0.507c0.066,0.17,0.135,0.345,0.207,0.514c0.067,0.174,0.137,0.348,0.209,0.52
		c0.067,0.17,0.133,0.34,0.205,0.506c0.067,0.175,0.137,0.349,0.209,0.521c0.067,0.169,0.133,0.338,0.205,0.505
		c0.065,0.168,0.131,0.337,0.201,0.503c0.069,0.175,0.137,0.352,0.211,0.521c0.068,0.175,0.137,0.35,0.211,0.521
		c0.066,0.169,0.131,0.338,0.203,0.506c0.068,0.172,0.135,0.345,0.207,0.515c0.068,0.174,0.137,0.348,0.211,0.52
		c0.066,0.169,0.131,0.338,0.203,0.505c0.068,0.175,0.137,0.35,0.21,0.521c0.067,0.169,0.132,0.339,0.204,0.505
		c0.068,0.175,0.137,0.349,0.21,0.521c0.067,0.17,0.132,0.338,0.204,0.506c0.068,0.175,0.137,0.349,0.21,0.521
		c0.067,0.17,0.132,0.339,0.204,0.506c0.068,0.174,0.137,0.348,0.21,0.521c0.067,0.17,0.132,0.338,0.204,0.506
		c0.064,0.166,0.129,0.332,0.199,0.496c0.07,0.179,0.141,0.357,0.217,0.534c0.066,0.17,0.132,0.338,0.203,0.506
		c0.068,0.176,0.137,0.35,0.211,0.521c0.066,0.169,0.132,0.338,0.203,0.505c0.068,0.174,0.137,0.349,0.211,0.521
		c0.066,0.168,0.132,0.338,0.203,0.504c0.067,0.174,0.137,0.349,0.211,0.521c0.065,0.169,0.132,0.339,0.203,0.505
		c0.016,0.037,0.031,0.074,0.045,0.111c10.257,6.953,22.638,11.037,35.975,11.037C88.465,128,109.717,114.268,120.486,94.094z"/>
	<path style="fill:#F5F5F5;" d="M105.012,66.197c0.092-1.04,0.146-2.09,0.146-3.154c0-19.383-15.553-35.098-34.736-35.098
		c-16.747,0-30.726,11.978-34.007,27.912c-0.104,0-0.205-0.016-0.309-0.016c-12.209,0-22.105,9.87-22.105,22.077
		c0,12.21,9.896,22.08,22.105,22.08h59.578c10.117,0,18.316-8.124,18.316-18.182C114,75.154,110.387,69.369,105.012,66.197z"/>
	<g>
		<path style="fill:#2D4452;" d="M72,78c-1.104,0-2-0.896-2-2V54c0-1.104,0.896-2,2-2s2,0.896,2,2v22C74,77.104,73.104,78,72,78z"/>
		<path style="fill:#2D4452;" d="M72,78c-0.512,0-1.023-0.195-1.414-0.586l-7-7c-0.781-0.781-0.781-2.047,0-2.828
			c0.781-0.781,2.047-0.781,2.828,0L72,73.171l5.586-5.585c0.781-0.781,2.047-0.781,2.828,0s0.781,2.047,0,2.828l-7,7
			C73.023,77.805,72.512,78,72,78z"/>
	</g>
</g>
</svg>
