<?xml version="1.0" encoding="iso-8859-1"?>
<!-- Generator: Adobe Illustrator 15.0.0, SVG Export Plug-In . SVG Version: 6.00 Build 0)  -->
<!DOCTYPE svg PUBLIC "-//W3C//DTD SVG 1.1//EN" "http://www.w3.org/Graphics/SVG/1.1/DTD/svg11.dtd">
<svg version="1.1" id="Layer_1" xmlns="http://www.w3.org/2000/svg" xmlns:xlink="http://www.w3.org/1999/xlink" x="0px" y="0px"
	 width="128px" height="128px" viewBox="0 0 128 128" style="enable-background:new 0 0 128 128;" xml:space="preserve">
<g>
	<circle style="fill:#88C5CC;" cx="64" cy="64" r="64"/>
	<path style="fill:#80B9BF;" d="M120.456,94.154c-0.072-0.207-0.162-0.407-0.246-0.609c-0.073-0.209-0.164-0.411-0.249-0.615
		c-0.072-0.207-0.163-0.408-0.247-0.612c-0.073-0.209-0.164-0.409-0.249-0.614c-0.072-0.208-0.163-0.409-0.247-0.612
		c-0.073-0.208-0.163-0.408-0.247-0.612c-0.074-0.209-0.164-0.41-0.25-0.615c-0.072-0.207-0.162-0.408-0.246-0.612
		c-0.074-0.209-0.164-0.411-0.25-0.616c-0.072-0.208-0.162-0.408-0.246-0.61c-0.125-0.354-0.266-0.7-0.422-1.041
		c-0.022-0.063-0.051-0.125-0.076-0.188c-0.07-0.209-0.164-0.411-0.248-0.616c-0.071-0.208-0.164-0.407-0.248-0.609
		c-0.07-0.209-0.164-0.412-0.248-0.615c-0.071-0.208-0.164-0.409-0.248-0.613c-0.07-0.209-0.161-0.411-0.246-0.615
		c-0.073-0.209-0.163-0.409-0.247-0.612c-0.073-0.209-0.164-0.409-0.249-0.613c-0.073-0.208-0.163-0.409-0.247-0.613
		c-0.073-0.209-0.164-0.409-0.249-0.614c-0.073-0.209-0.163-0.408-0.247-0.611c-0.071-0.209-0.164-0.411-0.249-0.615
		c-0.07-0.208-0.163-0.409-0.247-0.612c-0.071-0.207-0.163-0.41-0.248-0.613c-0.071-0.209-0.163-0.412-0.249-0.616
		c-0.07-0.207-0.16-0.408-0.246-0.611c-0.072-0.209-0.162-0.411-0.248-0.613c-0.072-0.209-0.162-0.408-0.246-0.613
		c-0.074-0.209-0.164-0.41-0.25-0.615c-0.072-0.209-0.162-0.409-0.246-0.612c-0.074-0.209-0.164-0.41-0.25-0.613
		c-0.072-0.209-0.162-0.41-0.246-0.612c-0.073-0.209-0.164-0.412-0.25-0.617c-0.072-0.207-0.162-0.408-0.246-0.609
		c-0.125-0.354-0.266-0.701-0.422-1.041c-0.024-0.063-0.051-0.125-0.076-0.188c-0.072-0.209-0.163-0.412-0.248-0.617
		c-0.072-0.207-0.163-0.408-0.247-0.609c-0.073-0.209-0.164-0.412-0.249-0.615c-0.072-0.209-0.163-0.408-0.247-0.613
		c-0.073-0.207-0.163-0.41-0.248-0.613c-0.073-0.209-0.164-0.41-0.249-0.614c-0.072-0.209-0.163-0.41-0.247-0.613
		c-0.073-0.209-0.164-0.409-0.249-0.614c-0.072-0.207-0.163-0.408-0.247-0.611c-0.073-0.209-0.163-0.41-0.249-0.615
		c-0.072-0.209-0.162-0.41-0.246-0.611c-0.074-0.209-0.164-0.412-0.25-0.616c-0.072-0.208-0.162-0.408-0.246-0.611
		c-0.074-0.21-0.164-0.412-0.25-0.617c-0.072-0.207-0.162-0.408-0.246-0.611c-0.073-0.209-0.164-0.411-0.25-0.615
		c-0.071-0.208-0.162-0.408-0.246-0.612c-0.071-0.209-0.164-0.41-0.25-0.615c-0.069-0.209-0.161-0.409-0.246-0.612
		c-0.071-0.208-0.163-0.409-0.247-0.613c-0.072-0.209-0.163-0.411-0.25-0.615c-0.07-0.207-0.161-0.408-0.245-0.613
		c-0.073-0.209-0.164-0.41-0.249-0.615c-0.074-0.211-0.165-0.415-0.251-0.622c-0.072-0.205-0.162-0.404-0.246-0.605
		c-0.073-0.207-0.163-0.408-0.247-0.613c-0.073-0.209-0.164-0.41-0.249-0.615c-0.072-0.208-0.163-0.408-0.247-0.611
		c-0.071-0.209-0.164-0.411-0.249-0.614c-0.07-0.209-0.162-0.41-0.246-0.613c-0.072-0.209-0.164-0.411-0.25-0.616
		c-0.07-0.207-0.162-0.408-0.246-0.611c-0.072-0.209-0.162-0.41-0.248-0.615c-0.072-0.207-0.162-0.408-0.246-0.612
		c-0.074-0.209-0.164-0.411-0.25-0.615c-0.072-0.208-0.162-0.409-0.246-0.611c-0.074-0.209-0.164-0.41-0.248-0.615
		c-0.074-0.209-0.164-0.41-0.25-0.614c-0.072-0.208-0.162-0.408-0.246-0.612c-0.073-0.209-0.164-0.411-0.25-0.616
		c-0.072-0.207-0.162-0.408-0.246-0.611c-0.073-0.209-0.164-0.411-0.25-0.615c-0.072-0.208-0.162-0.408-0.246-0.612
		c-0.073-0.209-0.164-0.41-0.249-0.615c-0.073-0.209-0.163-0.41-0.247-0.613c-0.072-0.209-0.164-0.409-0.249-0.613
		c-0.073-0.208-0.163-0.409-0.247-0.613c-0.072-0.209-0.164-0.411-0.249-0.616c-0.073-0.211-0.165-0.414-0.251-0.621
		c-0.072-0.207-0.162-0.405-0.246-0.605c-0.072-0.208-0.162-0.409-0.246-0.613c-0.074-0.209-0.164-0.411-0.25-0.616
		c-0.072-0.207-0.162-0.408-0.246-0.611c-0.074-0.208-0.164-0.409-0.248-0.613c-0.073-0.209-0.164-0.411-0.25-0.614
		c-0.071-0.209-0.162-0.41-0.246-0.613c-0.073-0.209-0.164-0.411-0.25-0.616c-0.071-0.208-0.161-0.408-0.246-0.611
		c-0.073-0.209-0.163-0.411-0.25-0.615c-0.07-0.207-0.161-0.408-0.245-0.613c-1.731-4.909-6.656-8.606-11.902-8.606h-3h-29h-9
		c-0.335,0-0.669,0.02-1.001,0.05c-0.118,0.011-0.235,0.026-0.353,0.041c-0.211,0.025-0.422,0.056-0.633,0.093
		c-0.139,0.025-0.277,0.051-0.416,0.08c-0.191,0.043-0.383,0.09-0.572,0.143c-0.135,0.035-0.271,0.066-0.404,0.105l0,0
		c-4.581,1.389-8.352,5.452-9.047,10.241l-7.066,45.946c-0.328,1.043-0.508,2.149-0.508,3.301v5c0,1.594,0.348,3.104,0.961,4.475
		c0.078,0.209,0.158,0.414,0.249,0.616c0.078,0.207,0.158,0.412,0.248,0.612c0.078,0.208,0.158,0.414,0.249,0.615
		c0.079,0.209,0.159,0.416,0.25,0.616c0.078,0.207,0.156,0.412,0.247,0.61c0.078,0.207,0.157,0.412,0.248,0.612
		c0.077,0.208,0.157,0.411,0.248,0.612c0.077,0.207,0.157,0.414,0.249,0.615c0.078,0.207,0.158,0.412,0.248,0.612
		c0.078,0.208,0.158,0.414,0.248,0.616c0.078,0.207,0.158,0.411,0.248,0.61c0.078,0.209,0.158,0.414,0.25,0.615
		c0.078,0.207,0.158,0.412,0.248,0.612c0.078,0.208,0.158,0.414,0.248,0.615c0.078,0.205,0.158,0.41,0.248,0.611
		c0.078,0.207,0.158,0.414,0.25,0.615c0.078,0.208,0.158,0.415,0.25,0.616c0.078,0.207,0.158,0.412,0.246,0.611
		c0.078,0.207,0.158,0.412,0.248,0.61c0.078,0.209,0.158,0.414,0.25,0.616c0.077,0.207,0.157,0.412,0.248,0.611
		c0.077,0.209,0.157,0.413,0.248,0.614c0.078,0.207,0.158,0.412,0.248,0.613c0.078,0.207,0.158,0.412,0.248,0.613
		c0.078,0.208,0.158,0.414,0.249,0.614c0.078,0.207,0.158,0.412,0.248,0.613c0.078,0.207,0.158,0.414,0.249,0.614
		c0.078,0.207,0.158,0.412,0.248,0.612c0.078,0.208,0.158,0.413,0.249,0.614c0.079,0.209,0.159,0.414,0.25,0.615
		c0.078,0.207,0.157,0.412,0.247,0.612c0.078,0.207,0.158,0.412,0.248,0.611c0.078,0.207,0.158,0.414,0.249,0.615
		c0.077,0.207,0.157,0.412,0.248,0.612c0.077,0.207,0.157,0.414,0.249,0.615c0.078,0.207,0.158,0.412,0.248,0.611
		c0.078,0.207,0.158,0.414,0.248,0.615c0.078,0.207,0.158,0.412,0.248,0.611c0.078,0.209,0.158,0.414,0.25,0.616
		c0.078,0.206,0.158,0.411,0.248,0.611c0.078,0.207,0.158,0.412,0.248,0.612c0.033,0.091,0.072,0.177,0.105,0.265
		C43.512,125.434,53.452,128,64,128C88.441,128,109.676,114.295,120.456,94.154z"/>
	<path style="fill:#E7915C;" d="M103.5,90h-79c-0.29,0-0.566-0.126-0.756-0.346C23.555,89.435,23.5,88,23.5,86l7.574-49.247
		C31.935,30.824,37.509,26,43.5,26h41c5.991,0,11.564,4.824,12.426,10.753L104.5,86c0,1-0.055,3.436-0.244,3.654
		C104.066,89.874,103.79,90,103.5,90z"/>
	<path style="fill:#CC8051;" d="M96.926,36.753C96.064,30.824,90.491,26,84.5,26h-3c5.991,0,11.564,4.824,12.426,10.753L101.5,86
		c0,1-0.055,3.436-0.244,3.654C101.066,89.874,100.79,90,100.5,90h3c0.29,0,0.566-0.126,0.756-0.346S104.5,87,104.5,86
		L96.926,36.753z"/>
	<path style="fill:#CC8051;" d="M93.5,102h-59c-6.064,0-11-4.936-11-11v-5c0-6.064,4.936-11,11-11h59c6.064,0,11,4.936,11,11v5
		C104.5,97.064,99.564,102,93.5,102z"/>
	<path style="fill:#E7915C;" d="M34.5,100c-4.963,0-9-4.038-9-9v-5c0-4.962,4.037-9,9-9h59c4.963,0,9,4.038,9,9v5
		c0,4.962-4.037,9-9,9H34.5z"/>
	<circle style="fill:#F5F5F5;" cx="86.834" cy="88.5" r="5"/>
	<circle style="fill:#E7915C;" cx="86.834" cy="88.5" r="3"/>
</g>
</svg>
