<?xml version="1.0" encoding="iso-8859-1"?>
<!-- Generator: Adobe Illustrator 15.0.0, SVG Export Plug-In . SVG Version: 6.00 Build 0)  -->
<!DOCTYPE svg PUBLIC "-//W3C//DTD SVG 1.1//EN" "http://www.w3.org/Graphics/SVG/1.1/DTD/svg11.dtd">
<svg version="1.1" id="Layer_1" xmlns="http://www.w3.org/2000/svg" xmlns:xlink="http://www.w3.org/1999/xlink" x="0px" y="0px"
	 width="128px" height="128px" viewBox="0 0 128 128" style="enable-background:new 0 0 128 128;" xml:space="preserve">
<g>
	<circle style="fill:#2D4452;" cx="64" cy="64" r="64"/>
	<g>
		<path style="fill:#CCCCCC;" d="M26.465,86.564L61,64.5L26.438,41.458c-0.871,0.735-1.438,1.82-1.438,3.042v39
			C25,84.734,25.578,85.829,26.465,86.564z"/>
		<path style="fill:#CCCCCC;" d="M101.563,41.458L67,64.5l34.535,22.064c0.887-0.735,1.465-1.83,1.465-3.064v-39
			C103,43.278,102.434,42.193,101.563,41.458z"/>
		<path style="fill:#E6E6E6;" d="M64,60.5L26.413,86.521c0.7,0.602,1.599,0.979,2.587,0.979h70c0.988,0,1.887-0.377,2.587-0.979
			L64,60.5z"/>
		<path style="fill:#F5F5F5;" d="M64,67.5l37.587-26.021c-0.7-0.602-1.599-0.979-2.587-0.979H29c-0.988,0-1.887,0.377-2.587,0.979
			L64,67.5z"/>
	</g>
</g>
</svg>
