<?xml version="1.0" encoding="iso-8859-1"?>
<!-- Generator: Adobe Illustrator 15.0.0, SVG Export Plug-In . SVG Version: 6.00 Build 0)  -->
<!DOCTYPE svg PUBLIC "-//W3C//DTD SVG 1.1//EN" "http://www.w3.org/Graphics/SVG/1.1/DTD/svg11.dtd">
<svg version="1.1" id="Layer_1" xmlns="http://www.w3.org/2000/svg" xmlns:xlink="http://www.w3.org/1999/xlink" x="0px" y="0px"
	 width="128px" height="128px" viewBox="0 0 128 128" style="enable-background:new 0 0 128 128;" xml:space="preserve">
<g>
	<circle style="fill:#E16B5A;" cx="64" cy="64" r="64"/>
	<g>
		<path style="fill:#E6E6E6;" d="M87.953,106c0,1.656-1.344,3-3,3h-42c-1.656,0-3-1.344-3-3V22c0-1.656,1.344-3,3-3h42
			c1.656,0,3,1.344,3,3V106z"/>
	</g>
	<g>
		<rect x="40.953" y="28" style="fill:#395F73;" width="46" height="66"/>
	</g>
	<g>
		<rect x="41.953" y="29" style="fill:#406A80;" width="44" height="64"/>
	</g>
	<g>
		<circle style="fill:#406A80;" cx="63.953" cy="22" r="1"/>
	</g>
	<g>
		<path style="fill:#406A80;" d="M68.953,26h-10c-0.553,0-1-0.447-1-1s0.447-1,1-1h10c0.553,0,1,0.447,1,1S69.506,26,68.953,26z"/>
	</g>
	<g>
		<path style="fill:#E6E6E6;" d="M81.953,20h-4c-0.553,0-1-0.447-1-1s0.447-1,1-1h4c0.553,0,1,0.447,1,1S82.506,20,81.953,20z"/>
	</g>
	<g>
		<path style="fill:#E6E6E6;" d="M39.953,32c-0.553,0-1-0.447-1-1v-4c0-0.553,0.447-1,1-1s1,0.447,1,1v4
			C40.953,31.553,40.506,32,39.953,32z"/>
	</g>
	<g>
		<path style="fill:#E6E6E6;" d="M39.953,39c-0.553,0-1-0.447-1-1v-1c0-0.553,0.447-1,1-1s1,0.447,1,1v1
			C40.953,38.553,40.506,39,39.953,39z"/>
	</g>
	<g>
		<path style="fill:#E6E6E6;" d="M39.953,44c-0.553,0-1-0.447-1-1v-1c0-0.553,0.447-1,1-1s1,0.447,1,1v1
			C40.953,43.553,40.506,44,39.953,44z"/>
	</g>
	<path style="fill:#406A80;" d="M63.953,98c-2.205,0-4,1.795-4,4s1.795,4,4,4s4-1.795,4-4S66.158,98,63.953,98z"/>
	<path style="fill:#F5F5F5;" d="M68.953,73h-21c-1.1,0-2,0.9-2,2v10c0,1.1,0.9,2,2,2v3l3.75-3h17.25c1.1,0,2-0.9,2-2V75
		C70.953,73.9,70.053,73,68.953,73z"/>
	<g>
		<path style="fill:#CCCCCC;" d="M57.953,77h-8c-0.553,0-1-0.447-1-1s0.447-1,1-1h8c0.553,0,1,0.447,1,1S58.506,77,57.953,77z"/>
		<path style="fill:#CCCCCC;" d="M60.953,85h-11c-0.553,0-1-0.447-1-1s0.447-1,1-1h11c0.553,0,1,0.447,1,1S61.506,85,60.953,85z"/>
		<path style="fill:#CCCCCC;" d="M64.953,81h-15c-0.553,0-1-0.447-1-1s0.447-1,1-1h15c0.553,0,1,0.447,1,1S65.506,81,64.953,81z"/>
	</g>
</g>
</svg>
