<?xml version="1.0" encoding="iso-8859-1"?>
<!-- Generator: Adobe Illustrator 15.0.0, SVG Export Plug-In . SVG Version: 6.00 Build 0)  -->
<!DOCTYPE svg PUBLIC "-//W3C//DTD SVG 1.1//EN" "http://www.w3.org/Graphics/SVG/1.1/DTD/svg11.dtd">
<svg version="1.1" id="Layer_1" xmlns="http://www.w3.org/2000/svg" xmlns:xlink="http://www.w3.org/1999/xlink" x="0px" y="0px"
	 width="128px" height="128px" viewBox="0 0 128 128" style="enable-background:new 0 0 128 128;" xml:space="preserve">
<g>
	<circle style="fill:#B2E3FF;" cx="64" cy="63.99" r="64"/>
	<path style="fill:#A9D8F2;" d="M126.232,78.909c-0.023-0.047-0.045-0.097-0.073-0.139c-0.039-0.205-0.112-0.371-0.208-0.515
		c-0.039-0.203-0.111-0.368-0.206-0.511c-0.039-0.205-0.112-0.371-0.208-0.514c-0.039-0.203-0.111-0.368-0.205-0.509
		c-0.039-0.206-0.113-0.373-0.208-0.517c-0.04-0.204-0.112-0.369-0.206-0.511c-0.04-0.205-0.113-0.37-0.207-0.513
		c-0.039-0.205-0.113-0.371-0.208-0.515c-0.04-0.203-0.112-0.368-0.206-0.511c-0.039-0.205-0.113-0.371-0.207-0.514
		c-0.039-0.203-0.113-0.368-0.207-0.509c-0.039-0.206-0.111-0.373-0.207-0.517c-0.039-0.204-0.111-0.369-0.207-0.511
		c-0.039-0.205-0.111-0.371-0.207-0.514c-0.039-0.204-0.111-0.369-0.207-0.512c-0.039-0.204-0.111-0.369-0.207-0.513
		c-0.039-0.205-0.111-0.371-0.207-0.514c-0.039-0.203-0.111-0.368-0.205-0.509c-0.039-0.206-0.112-0.373-0.209-0.517
		c-0.039-0.204-0.111-0.369-0.207-0.511c-0.039-0.205-0.111-0.371-0.207-0.514c-0.038-0.204-0.111-0.369-0.207-0.512
		c-0.038-0.204-0.111-0.37-0.206-0.514c-0.039-0.204-0.112-0.369-0.207-0.511c-0.039-0.204-0.111-0.369-0.205-0.511
		c-0.04-0.206-0.113-0.373-0.209-0.517c-0.039-0.204-0.111-0.369-0.206-0.511c-0.039-0.205-0.112-0.371-0.208-0.514
		c-0.039-0.204-0.11-0.369-0.206-0.512c-0.039-0.204-0.111-0.37-0.208-0.514c-0.039-0.204-0.11-0.369-0.206-0.511
		c-0.039-0.205-0.111-0.371-0.208-0.514c-0.039-0.203-0.11-0.368-0.205-0.51c-0.039-0.206-0.112-0.372-0.207-0.515
		c-0.04-0.205-0.112-0.371-0.208-0.514c-0.039-0.204-0.111-0.369-0.205-0.512c-0.041-0.204-0.113-0.37-0.209-0.514
		c-0.039-0.204-0.111-0.369-0.205-0.511c-0.041-0.205-0.113-0.371-0.209-0.514c-0.039-0.203-0.111-0.368-0.205-0.51
		c-0.039-0.206-0.112-0.372-0.207-0.516c-0.041-0.204-0.112-0.369-0.207-0.511c-0.039-0.205-0.112-0.37-0.207-0.514
		c-0.039-0.204-0.112-0.37-0.207-0.514c-0.041-0.204-0.112-0.369-0.207-0.511c-0.039-0.205-0.112-0.371-0.207-0.514
		c-0.041-0.203-0.112-0.368-0.207-0.51c-0.038-0.206-0.111-0.372-0.207-0.516c-0.039-0.204-0.112-0.369-0.207-0.511
		c-0.039-0.205-0.112-0.371-0.207-0.514c-0.039-0.204-0.112-0.369-0.207-0.512c-0.039-0.205-0.112-0.371-0.207-0.514
		c-0.039-0.204-0.112-0.369-0.207-0.511c-0.039-0.205-0.111-0.37-0.207-0.514c-0.039-0.204-0.111-0.37-0.206-0.512
		c-0.04-0.205-0.112-0.37-0.207-0.513c-0.039-0.205-0.112-0.371-0.208-0.515c-0.039-0.203-0.111-0.368-0.206-0.511
		c-0.039-0.205-0.112-0.371-0.208-0.514c-0.039-0.204-0.111-0.369-0.206-0.511c-0.039-0.205-0.112-0.371-0.208-0.515
		c-0.039-0.203-0.111-0.367-0.205-0.509c-0.039-0.206-0.111-0.372-0.207-0.515c-0.039-0.205-0.113-0.371-0.207-0.515
		c-0.041-0.203-0.113-0.368-0.207-0.511c-0.039-0.205-0.113-0.371-0.207-0.514c-0.041-0.204-0.113-0.369-0.207-0.511
		c-0.039-0.205-0.113-0.371-0.207-0.515c-0.039-0.203-0.112-0.367-0.207-0.509c-0.039-0.206-0.111-0.373-0.207-0.516
		c-0.039-0.204-0.111-0.369-0.207-0.511c-0.039-0.205-0.111-0.37-0.207-0.514c-0.039-0.205-0.111-0.371-0.207-0.514
		c-0.039-0.204-0.111-0.369-0.207-0.511c-0.039-0.205-0.111-0.371-0.207-0.515c-0.039-0.203-0.111-0.367-0.205-0.509
		c-0.039-0.206-0.112-0.373-0.208-0.516c-0.039-0.204-0.112-0.369-0.207-0.511c-0.039-0.205-0.112-0.371-0.207-0.515
		c-0.039-0.204-0.112-0.369-0.207-0.511c-0.039-0.205-0.111-0.37-0.207-0.513c-0.039-0.205-0.112-0.371-0.207-0.515
		c-0.039-0.203-0.11-0.367-0.205-0.509c-0.04-0.206-0.112-0.373-0.209-0.516c-0.039-0.204-0.11-0.369-0.206-0.511
		c-0.039-0.205-0.111-0.371-0.208-0.515c-0.039-0.204-0.11-0.369-0.206-0.511c-0.039-0.205-0.111-0.371-0.208-0.514
		c-0.039-0.204-0.11-0.369-0.206-0.512c-0.039-0.205-0.111-0.371-0.208-0.514c-0.038-0.203-0.11-0.368-0.204-0.509
		c-0.039-0.206-0.113-0.372-0.207-0.515c-0.041-0.205-0.113-0.371-0.209-0.515c-0.171-0.881-0.875-1.139-1.91-1.139h-82
		c-1.195,0-2.047,0.34-2.047,1.591V75.99v7.5c0,0.452,0.121,0.919,0.338,1.325c0.055,0.177,0.121,0.349,0.207,0.511
		c0.053,0.177,0.119,0.35,0.205,0.512c0.055,0.179,0.121,0.353,0.209,0.516c0.053,0.177,0.119,0.349,0.205,0.511
		c0.055,0.178,0.121,0.351,0.209,0.514c0.053,0.178,0.119,0.35,0.205,0.512c0.055,0.178,0.121,0.351,0.208,0.514
		c0.054,0.177,0.12,0.349,0.206,0.511c0.055,0.178,0.121,0.352,0.208,0.514c0.054,0.177,0.12,0.349,0.205,0.511
		c0.056,0.178,0.121,0.352,0.208,0.515c0.055,0.177,0.121,0.349,0.207,0.511c0.055,0.179,0.12,0.352,0.207,0.514
		c0.055,0.178,0.121,0.351,0.207,0.514c0.055,0.177,0.121,0.349,0.207,0.511c0.055,0.178,0.121,0.352,0.207,0.514
		c0.054,0.177,0.12,0.349,0.206,0.511c0.055,0.178,0.121,0.352,0.208,0.515c0.054,0.177,0.12,0.35,0.206,0.511
		c0.055,0.179,0.12,0.352,0.208,0.515c0.054,0.177,0.119,0.349,0.206,0.511c0.055,0.178,0.12,0.351,0.206,0.513
		c0.056,0.178,0.121,0.352,0.209,0.515c0.054,0.176,0.119,0.348,0.205,0.51c0.055,0.178,0.121,0.352,0.207,0.515
		c0.056,0.177,0.121,0.35,0.207,0.511c0.056,0.179,0.121,0.352,0.207,0.515c0.056,0.177,0.121,0.349,0.207,0.511
		c0.056,0.178,0.121,0.351,0.207,0.514c0.056,0.178,0.121,0.35,0.207,0.512c0.055,0.177,0.121,0.35,0.207,0.512
		c0.055,0.178,0.121,0.352,0.207,0.515c0.055,0.178,0.121,0.35,0.207,0.512c0.055,0.178,0.121,0.351,0.207,0.514
		c0.055,0.177,0.12,0.349,0.207,0.511c0.055,0.178,0.12,0.351,0.207,0.514c0.055,0.178,0.12,0.35,0.206,0.512
		c0.056,0.177,0.121,0.35,0.207,0.513c0.054,0.177,0.12,0.35,0.207,0.512c0.054,0.178,0.12,0.352,0.207,0.514
		c0.054,0.178,0.121,0.351,0.207,0.514c0.056,0.177,0.121,0.349,0.207,0.511c0.054,0.178,0.121,0.352,0.207,0.514
		c0.056,0.178,0.121,0.35,0.207,0.512c0.054,0.178,0.121,0.351,0.207,0.514c0.054,0.176,0.12,0.348,0.206,0.51
		c0.055,0.179,0.121,0.353,0.208,0.516c0.054,0.177,0.12,0.349,0.206,0.511c0.055,0.178,0.121,0.351,0.208,0.514
		c0.054,0.177,0.12,0.35,0.206,0.511c0.055,0.179,0.121,0.352,0.207,0.514c0.055,0.178,0.121,0.351,0.208,0.514
		c0.054,0.176,0.12,0.348,0.206,0.51c0.054,0.179,0.121,0.353,0.207,0.516c0.055,0.177,0.121,0.349,0.207,0.511
		c0.055,0.178,0.121,0.351,0.207,0.514c0.055,0.178,0.121,0.35,0.207,0.512c0.055,0.178,0.121,0.351,0.207,0.514
		c0.055,0.177,0.121,0.349,0.207,0.511c0.054,0.177,0.119,0.35,0.205,0.512c0.056,0.179,0.121,0.353,0.209,0.516
		c0.054,0.177,0.119,0.349,0.205,0.511c0.055,0.178,0.121,0.351,0.209,0.514c0.053,0.178,0.119,0.35,0.205,0.512
		c0.055,0.178,0.121,0.351,0.209,0.514c0.053,0.177,0.119,0.349,0.205,0.511c0.055,0.178,0.121,0.352,0.209,0.514
		c0.053,0.177,0.119,0.349,0.204,0.511c0.056,0.178,0.121,0.351,0.208,0.514c0.055,0.178,0.121,0.351,0.207,0.514
		c0.055,0.178,0.121,0.35,0.207,0.512c0.049,0.154,0.11,0.305,0.182,0.449c8.416,4.071,17.857,6.355,27.834,6.355
		C94.207,127.99,119.51,107.056,126.232,78.909z"/>
	<g>
		<rect x="53" y="85.49" style="fill:#E6E6E6;" width="22" height="9"/>
		<path style="fill:#1E2C33;" d="M20.953,75.99V31.581c0-1.251,0.852-1.591,2.047-1.591h82c1.196,0,1.953,0.34,1.953,1.591V75.99
			H20.953z"/>
		<path style="fill:#F5F5F5;" d="M20.953,75.99v7.5c0,1.195,0.852,2.5,2.047,2.5h82c1.196,0,1.953-1.305,1.953-2.5v-7.5H20.953z"/>
		<rect x="25" y="34.49" style="fill:#586874;" width="78" height="37"/>
		<path style="fill:#F5F5F5;" d="M82,96.49c0-1.1-0.9-2-2-2H48c-1.1,0-2,0.9-2,2l0,0c0,1.1,0.9,2,2,2h32
			C81.1,98.49,82,97.59,82,96.49L82,96.49z"/>
		<circle style="fill:#1E2C33;" cx="64" cy="80.49" r="2"/>
	</g>
</g>
</svg>
