<?xml version="1.0" encoding="iso-8859-1"?>
<!-- Generator: Adobe Illustrator 15.0.0, SVG Export Plug-In . SVG Version: 6.00 Build 0)  -->
<!DOCTYPE svg PUBLIC "-//W3C//DTD SVG 1.1//EN" "http://www.w3.org/Graphics/SVG/1.1/DTD/svg11.dtd">
<svg version="1.1" id="Layer_1" xmlns="http://www.w3.org/2000/svg" xmlns:xlink="http://www.w3.org/1999/xlink" x="0px" y="0px"
	 width="128px" height="128px" viewBox="0 0 128 128" style="enable-background:new 0 0 128 128;" xml:space="preserve">
<g>
	<circle style="fill:#88C5CC;" cx="64" cy="64" r="64"/>
	<path style="fill:#80B9BF;" d="M125.371,82.155c-0.035-0.09-0.063-0.184-0.107-0.269c-0.053-0.18-0.121-0.351-0.207-0.514
		c-0.053-0.178-0.121-0.347-0.205-0.509c-0.054-0.182-0.123-0.354-0.209-0.517c-0.053-0.179-0.121-0.349-0.207-0.511
		c-0.053-0.18-0.121-0.351-0.207-0.514c-0.053-0.179-0.121-0.349-0.207-0.511c-0.051-0.181-0.121-0.351-0.207-0.514
		c-0.053-0.18-0.121-0.351-0.207-0.514c-0.053-0.178-0.121-0.347-0.205-0.509c-0.053-0.182-0.122-0.354-0.209-0.517
		c-0.053-0.179-0.12-0.349-0.205-0.511c-0.053-0.18-0.122-0.351-0.209-0.514c-0.053-0.179-0.12-0.349-0.205-0.511
		c-0.053-0.181-0.122-0.352-0.208-0.515c-0.054-0.179-0.121-0.349-0.206-0.511c-0.053-0.179-0.121-0.349-0.206-0.511
		c-0.054-0.182-0.122-0.354-0.209-0.517c-0.052-0.179-0.12-0.349-0.205-0.511c-0.054-0.18-0.122-0.351-0.209-0.514
		c-0.052-0.179-0.12-0.349-0.205-0.511c-0.053-0.181-0.122-0.352-0.209-0.515c-0.052-0.179-0.12-0.349-0.205-0.511
		c-0.053-0.18-0.122-0.351-0.209-0.514c-0.052-0.178-0.119-0.348-0.205-0.509c-0.053-0.182-0.121-0.354-0.208-0.517
		c-0.052-0.179-0.121-0.349-0.206-0.511c-0.053-0.18-0.12-0.35-0.207-0.513c-0.053-0.181-0.122-0.352-0.208-0.515
		c-0.052-0.179-0.121-0.349-0.205-0.511c-0.054-0.18-0.123-0.351-0.209-0.514c-0.052-0.178-0.119-0.348-0.205-0.509
		c-0.053-0.182-0.121-0.354-0.207-0.517c-0.054-0.179-0.121-0.349-0.207-0.511c-0.054-0.18-0.121-0.351-0.207-0.514
		c-0.054-0.18-0.121-0.35-0.207-0.512c-0.053-0.18-0.121-0.35-0.207-0.513c-0.054-0.18-0.121-0.351-0.207-0.514
		c-0.053-0.178-0.121-0.348-0.205-0.509c-0.053-0.182-0.123-0.354-0.209-0.517c-0.053-0.179-0.121-0.349-0.207-0.511
		c-0.053-0.18-0.121-0.351-0.207-0.514c-0.053-0.18-0.121-0.35-0.206-0.512c-0.054-0.18-0.122-0.351-0.208-0.514
		c-0.053-0.179-0.121-0.349-0.206-0.511c-0.052-0.18-0.121-0.35-0.206-0.511c-0.053-0.182-0.122-0.354-0.209-0.517
		c-0.053-0.179-0.12-0.349-0.205-0.511c-0.053-0.18-0.122-0.351-0.209-0.514c-0.053-0.18-0.12-0.35-0.205-0.512
		c-0.053-0.18-0.122-0.351-0.209-0.514c-0.053-0.179-0.12-0.349-0.205-0.511c-0.053-0.18-0.122-0.352-0.209-0.514
		c-0.052-0.179-0.119-0.348-0.205-0.51c-0.052-0.18-0.121-0.352-0.207-0.515c-0.053-0.18-0.122-0.351-0.208-0.514
		c-0.052-0.18-0.121-0.35-0.206-0.512c-0.053-0.18-0.121-0.351-0.208-0.514c-0.052-0.179-0.12-0.349-0.206-0.511
		c-0.053-0.18-0.121-0.352-0.207-0.514c-0.053-0.179-0.121-0.348-0.205-0.51c-0.054-0.181-0.123-0.353-0.209-0.516
		c-0.053-0.179-0.121-0.349-0.207-0.511c-0.052-0.181-0.121-0.351-0.207-0.514c-0.053-0.18-0.121-0.351-0.207-0.514
		c-0.053-0.179-0.121-0.349-0.207-0.511c-0.053-0.18-0.121-0.352-0.207-0.514c-0.053-0.179-0.121-0.348-0.205-0.51
		c-0.053-0.181-0.123-0.353-0.209-0.516c-0.053-0.179-0.121-0.349-0.205-0.511c-0.053-0.181-0.123-0.352-0.209-0.515
		c-0.053-0.179-0.12-0.349-0.205-0.511c-0.053-0.18-0.122-0.351-0.209-0.514c-0.053-0.179-0.12-0.35-0.205-0.511
		c-0.053-0.181-0.121-0.351-0.207-0.514c-0.053-0.179-0.121-0.35-0.207-0.512c-0.053-0.18-0.121-0.35-0.206-0.513
		c-0.054-0.181-0.122-0.352-0.209-0.515c-0.052-0.179-0.12-0.349-0.205-0.511c-0.054-0.18-0.122-0.351-0.209-0.514
		c-0.052-0.18-0.12-0.35-0.205-0.511c-0.053-0.181-0.122-0.352-0.209-0.515c-0.052-0.178-0.119-0.347-0.205-0.509
		c-0.052-0.18-0.121-0.352-0.207-0.515c-0.053-0.181-0.122-0.352-0.208-0.515c-0.052-0.179-0.121-0.349-0.206-0.511
		c-0.053-0.18-0.122-0.351-0.208-0.514c-0.052-0.18-0.121-0.35-0.206-0.511c-0.053-0.181-0.122-0.352-0.208-0.515
		c-0.052-0.178-0.119-0.347-0.205-0.509c-0.053-0.181-0.121-0.354-0.207-0.516c-0.054-0.18-0.121-0.35-0.207-0.512
		c-0.053-0.18-0.121-0.35-0.207-0.513c-0.054-0.18-0.121-0.351-0.207-0.514c-0.054-0.18-0.121-0.35-0.207-0.511
		c-0.054-0.181-0.121-0.352-0.207-0.515c-0.054-0.178-0.121-0.347-0.205-0.509c-0.053-0.181-0.123-0.354-0.209-0.516
		c-0.053-0.18-0.121-0.35-0.207-0.512c-0.053-0.18-0.121-0.351-0.207-0.514c-0.053-0.179-0.121-0.349-0.207-0.511
		c-0.053-0.181-0.12-0.351-0.207-0.513c-0.053-0.181-0.121-0.352-0.207-0.515c-0.053-0.178-0.12-0.347-0.205-0.509
		c-0.053-0.181-0.122-0.354-0.209-0.516c-0.053-0.18-0.12-0.35-0.205-0.512c-0.053-0.18-0.122-0.351-0.209-0.514
		c-0.053-0.179-0.12-0.349-0.205-0.511c-0.053-0.181-0.122-0.352-0.209-0.515c-0.053-0.179-0.12-0.349-0.205-0.511
		c-0.053-0.18-0.122-0.351-0.209-0.514c-0.053-0.178-0.119-0.347-0.205-0.509c-0.052-0.181-0.121-0.353-0.207-0.516
		c-0.053-0.18-0.122-0.351-0.208-0.514c-0.338-1.153-1.392-2.001-2.653-2.001H28.781c-1.533,0-2.776,1.244-2.776,2.778v60.442
		c0,0.469,0.127,0.902,0.331,1.289c0.052,0.18,0.121,0.35,0.206,0.512c0.053,0.179,0.121,0.349,0.206,0.511
		c0.053,0.181,0.122,0.353,0.208,0.516c0.053,0.18,0.121,0.35,0.207,0.511c0.053,0.181,0.121,0.352,0.207,0.515
		c0.053,0.179,0.12,0.349,0.207,0.511c0.053,0.18,0.12,0.351,0.207,0.514c0.053,0.18,0.12,0.35,0.206,0.512
		c0.054,0.18,0.121,0.351,0.207,0.514c0.054,0.178,0.121,0.347,0.205,0.509c0.054,0.181,0.123,0.354,0.209,0.516
		c0.054,0.18,0.121,0.35,0.207,0.512c0.047,0.165,0.109,0.322,0.187,0.475V100c0,0.633,0.162,1.224,0.427,1.757
		c0.059,0.176,0.125,0.347,0.206,0.511c0.06,0.177,0.125,0.347,0.206,0.511c0.059,0.179,0.126,0.351,0.208,0.517
		c0.06,0.176,0.125,0.346,0.207,0.511c0.06,0.178,0.125,0.35,0.207,0.515c0.06,0.176,0.125,0.346,0.207,0.511
		c0.06,0.177,0.125,0.349,0.207,0.514c0.06,0.177,0.125,0.347,0.207,0.511c0.06,0.178,0.125,0.35,0.207,0.515
		c0.06,0.175,0.125,0.345,0.205,0.508c0.06,0.179,0.127,0.351,0.209,0.517c0.06,0.177,0.125,0.347,0.206,0.512
		c0.059,0.177,0.125,0.348,0.207,0.513c0.059,0.177,0.126,0.349,0.208,0.514c0.059,0.177,0.125,0.347,0.206,0.512
		c0.059,0.177,0.126,0.349,0.208,0.514c0.058,0.175,0.124,0.345,0.204,0.508c0.06,0.179,0.127,0.351,0.209,0.517
		c0.059,0.177,0.125,0.347,0.205,0.512c0.06,0.177,0.127,0.349,0.209,0.514c0.059,0.176,0.125,0.346,0.205,0.511
		c0.06,0.178,0.127,0.349,0.207,0.514c0.06,0.177,0.127,0.349,0.209,0.514c0.059,0.175,0.123,0.345,0.205,0.508
		c0.06,0.179,0.125,0.352,0.209,0.518c0.058,0.176,0.123,0.346,0.205,0.511c0.06,0.177,0.127,0.349,0.209,0.514
		c0.058,0.176,0.123,0.346,0.205,0.511c0.06,0.178,0.127,0.35,0.209,0.515c0.058,0.176,0.123,0.346,0.205,0.511
		c0.059,0.176,0.125,0.346,0.206,0.51c0.06,0.179,0.126,0.352,0.208,0.518c0.059,0.176,0.125,0.346,0.207,0.511
		c0.059,0.177,0.125,0.349,0.207,0.514c0.059,0.176,0.125,0.346,0.207,0.511c0.059,0.178,0.125,0.35,0.207,0.515
		c0.059,0.176,0.125,0.346,0.207,0.511c0.059,0.176,0.125,0.347,0.206,0.512c0.06,0.178,0.125,0.349,0.207,0.514
		c0.06,0.177,0.125,0.348,0.207,0.513c0.015,0.041,0.034,0.08,0.049,0.12C45.766,125.976,54.643,128,64,128
		C93.037,128,117.543,108.655,125.371,82.155z"/>
	<g>
		<path style="fill:#B3B3B3;" d="M99,100c0,2.2-1.8,4-4,4H33c-2.2,0-4-1.8-4-4V89c0-2.2,1.8-4,4-4h62c2.2,0,4,1.8,4,4V100z"/>
		<path style="fill:#CCCCCC;" d="M102,85.222c0,1.534-1.243,2.778-2.777,2.778H28.777c-1.533,0-2.776-1.244-2.776-2.778V24.779
			c0-1.534,1.243-2.778,2.776-2.778h70.445c1.534,0,2.777,1.244,2.777,2.778V85.222z"/>
		<rect x="32" y="29" style="fill:#C2E2F2;" width="64" height="41"/>
		<circle style="fill:#CC584C;" cx="90" cy="96" r="2"/>
		<path style="fill:#263740;" d="M95,79c0-0.55-0.45-1-1-1h-2c-0.55,0-1-0.45-1-1l0,0c0-0.55-0.45-1-1-1h-4c-0.55,0-1,0.45-1,1l0,0
			c0,0.55-0.45,1-1,1H70c-0.55,0-1,0.45-1,1l0,0c0,0.55,0.45,1,1,1h14c0.55,0,1,0.45,1,1l0,0c0,0.55,0.45,1,1,1h4c0.55,0,1-0.45,1-1
			l0,0c0-0.55,0.45-1,1-1h2C94.55,80,95,79.55,95,79L95,79z"/>
		<rect x="28.777" y="88" style="fill:#A6A6A6;" width="70.223" height="2"/>
		<rect x="36" y="33" style="fill:#E6E6E6;" width="56" height="32"/>
		<rect x="36" y="33" style="fill:#F5F5F5;" width="56" height="6"/>
		<line style="fill:none;stroke:#E16B5A;stroke-linecap:round;stroke-miterlimit:10;" x1="88" y1="37" x2="90" y2="35"/>
		<line style="fill:none;stroke:#E16B5A;stroke-linecap:round;stroke-miterlimit:10;" x1="90" y1="37" x2="88" y2="35"/>
	</g>
</g>
</svg>
