<?xml version="1.0" encoding="iso-8859-1"?>
<!-- Generator: Adobe Illustrator 15.0.0, SVG Export Plug-In . SVG Version: 6.00 Build 0)  -->
<!DOCTYPE svg PUBLIC "-//W3C//DTD SVG 1.1//EN" "http://www.w3.org/Graphics/SVG/1.1/DTD/svg11.dtd">
<svg version="1.1" id="Layer_1" xmlns="http://www.w3.org/2000/svg" xmlns:xlink="http://www.w3.org/1999/xlink" x="0px" y="0px"
	 width="128px" height="128px" viewBox="0 0 128 128" style="enable-background:new 0 0 128 128;" xml:space="preserve">
<g>
	<circle style="fill:#C2D5D8;" cx="64" cy="64" r="64"/>
	<g>
		<path style="fill:#E6B58A;" d="M60,40.124C49.719,40.124,54,66,42,63c-16.521-4.13-24,0.584-24,11
			c0,18.709,18.805,33.876,42,33.876S102,92.709,102,74S83.195,40.124,60,40.124z M32,78c-2.762,0-5-2.238-5-5s2.238-5,5-5
			s5,2.238,5,5S34.762,78,32,78z"/>
		<g>
			<path style="fill:#D9AB82;" d="M38,63c1.436,0.357,2.631,0.295,3.652-0.078c-4.729-1.154-8.696-1.566-11.959-1.328
				C32.154,61.77,34.92,62.229,38,63z"/>
			<path style="fill:#D9AB82;" d="M60,40.124c-0.354,0-0.686,0.036-1.005,0.096C80.791,41.46,98,56.104,98,74
				c0,18.168-17.732,32.993-40,33.835c0.663,0.024,1.329,0.041,2,0.041c23.195,0,42-15.167,42-33.876S83.195,40.124,60,40.124z"/>
		</g>
		<circle style="fill:#E16B5A;" cx="47" cy="95" r="6"/>
		<circle style="fill:#F2CF61;" cx="65" cy="97" r="6"/>
		<circle style="fill:#4AB8A1;" cx="82" cy="89" r="6"/>
		<circle style="fill:#2995CC;" cx="90" cy="71" r="6"/>
	</g>
	<g>
		<path style="fill:#263740;" d="M67.533,59.84c4.578-0.797,9.07-4.109,13.227-8.267c9.508-9.507,16.578-24.755,15.706-25.628
			c-0.868-0.867-15.825,5.908-25.627,15.707c-4.133,4.135-7.466,8.746-8.266,13.229L67.533,59.84z"/>
		<path style="fill:#1E2C33;" d="M96.466,25.945c-0.231-0.23-1.478,0.088-3.354,0.859c-2.166,5.197-7.838,15.295-14.832,22.288
			c-4.155,4.156-8.646,7.47-13.227,8.267l2.48,2.479c4.578-0.797,9.07-4.11,13.227-8.267C90.268,42.066,97.338,26.818,96.466,25.945
			z"/>
		<path style="fill:#E6E6E6;" d="M66.25,46.982c-1.863,2.596-3.209,5.269-3.677,7.897l4.96,4.959
			c2.684-0.467,5.337-1.803,7.91-3.662L66.25,46.982z"/>
		<path style="fill:#CCCCCC;" d="M72.964,53.697c-2.573,1.859-5.228,3.195-7.911,3.662l2.48,2.479
			c2.684-0.467,5.337-1.803,7.91-3.662L72.964,53.697z"/>
		<path style="fill:#406A80;" d="M67.533,59.84l-4.96-4.959c-11.161,0.413-6.2,11.986-12.401,15.707
			c4.281,0,11.574-0.001,14.467-2.895C67.533,64.801,67.768,61.792,67.533,59.84z"/>
		<path style="fill:#2995CC;" d="M67.119,59.427l-3.721-3.72c-8.215,0.305-4.114,9.248-8.68,11.986
			c3.151,0,8.203,0.063,10.333-2.066C67.184,63.496,67.292,60.864,67.119,59.427z"/>
	</g>
</g>
</svg>
