<?xml version="1.0" encoding="iso-8859-1"?>
<!-- Generator: Adobe Illustrator 15.0.0, SVG Export Plug-In . SVG Version: 6.00 Build 0)  -->
<!DOCTYPE svg PUBLIC "-//W3C//DTD SVG 1.1//EN" "http://www.w3.org/Graphics/SVG/1.1/DTD/svg11.dtd">
<svg version="1.1" id="Layer_1" xmlns="http://www.w3.org/2000/svg" xmlns:xlink="http://www.w3.org/1999/xlink" x="0px" y="0px"
	 width="128px" height="128px" viewBox="0 0 128 128" style="enable-background:new 0 0 128 128;" xml:space="preserve">
<g>
	<circle style="fill:#C2D5D8;" cx="64" cy="64" r="64"/>
	<g>
		<g>
			<path style="fill:#F2CF61;" d="M68.182,35.258l37.791,32.736c2.494,2.16,2.769,5.969,0.607,8.465L96.104,88.553
				c-2.16,2.494-5.967,2.768-8.463,0.605L49.848,56.422L68.182,35.258z"/>
			<path style="fill:#F5F5F5;" d="M36.243,44.637l13.605,11.785l18.333-21.164L54.575,23.473c-2.495-2.16-6.303-1.887-8.464,0.607
				L35.635,36.174C33.475,38.668,33.749,42.477,36.243,44.637z"/>
			<path style="fill:#406A80;" d="M52.967,40.604c-1.444,1.666-3.974,1.85-5.643,0.404c-1.667-1.445-1.848-3.977-0.404-5.643
				c1.444-1.668,3.975-1.85,5.643-0.404C54.23,36.404,54.412,38.936,52.967,40.604z"/>
			<circle style="fill:#335466;" cx="49.944" cy="37.984" r="3"/>
			<path style="fill:#E6C45C;" d="M99.219,84.955c0.008-1.549-0.433-3.115-1.361-4.494l-26.82-39.807l-2.109-3.131l-0.078-0.219
				l-0.048,0.031l-1.059-1.57L49.848,56.422l37.792,32.736c2.496,2.162,6.303,1.889,8.463-0.605L99.219,84.955z"/>
		</g>
		<g>
			<path style="fill:#88C5CC;" d="M68.26,40.113l27.938,41.465c1.844,2.736,1.114,6.484-1.623,8.328l-13.271,8.941
				c-2.736,1.844-6.484,1.112-8.328-1.623L45.039,55.758L68.26,40.113z"/>
			<path style="fill:#E6E6E6;" d="M34.981,40.83l10.058,14.928L68.26,40.113L58.201,25.185c-1.844-2.736-5.592-3.467-8.329-1.623
				l-13.269,8.939C33.867,34.348,33.137,38.094,34.981,40.83z"/>
			<path style="fill:#406A80;" d="M52.179,41.301c-1.829,1.232-4.319,0.748-5.553-1.082c-1.232-1.83-0.747-4.32,1.083-5.553
				c1.829-1.232,4.32-0.748,5.552,1.084C54.494,37.578,54.008,40.068,52.179,41.301z"/>
			<circle style="fill:#335466;" cx="49.944" cy="37.983" r="3"/>
			<path style="fill:#80B9BF;" d="M68.396,41.922l-0.555-1.527L45.039,55.758l27.939,41.467c1.844,2.736,5.592,3.467,8.328,1.623
				l5.092-3.432c0.363-1.48,0.309-3.082-0.25-4.619L68.396,41.922z"/>
		</g>
		<path style="fill:#4AB8A1;" d="M67.2,44.484L84.27,91.479c1.125,3.103-0.49,6.563-3.592,7.689l-15.039,5.461
			c-3.102,1.127-6.561-0.488-7.688-3.59l-17.07-46.996L67.2,44.484z"/>
		<path style="fill:#F5F5F5;" d="M34.737,37.123l6.145,16.92L67.2,44.484l-6.145-16.92c-1.127-3.102-4.586-4.717-7.688-3.59
			l-15.039,5.461C35.226,30.562,33.61,34.021,34.737,37.123z"/>
		<path style="opacity:0.6;fill:#E6E6E6;enable-background:new    ;" d="M66,41.025l-4.917-13.461
			c-0.075-0.205-0.176-0.404-0.271-0.598c-0.029-0.059-0.072-0.115-0.103-0.174c-0.069-0.131-0.144-0.26-0.222-0.383
			c-0.041-0.064-0.087-0.125-0.13-0.188c-0.077-0.111-0.157-0.223-0.241-0.328c-0.048-0.061-0.098-0.117-0.148-0.174
			c-0.088-0.104-0.179-0.203-0.272-0.299c-0.052-0.051-0.104-0.102-0.157-0.152c-0.101-0.096-0.205-0.186-0.312-0.273
			c-0.052-0.043-0.104-0.086-0.157-0.127c-0.117-0.088-0.237-0.172-0.36-0.254c-0.049-0.031-0.096-0.064-0.146-0.094
			c-0.139-0.086-0.281-0.164-0.427-0.238c-0.037-0.02-0.073-0.041-0.11-0.059c-0.182-0.088-0.368-0.16-0.558-0.23
			c-0.002,0-0.004,0.006-0.006,0.006h-4.125l-15.012,5.443c-3.102,1.127-4.717,4.582-3.591,7.684l6.173,16.918L66,44.939V41.025z"/>
		<path style="fill:#43A691;" d="M58.419,102.021c0.15,0.256,0.318,0.496,0.501,0.723c0.031,0.037,0.063,0.074,0.094,0.111
			c0.196,0.229,0.404,0.449,0.631,0.646c0.001,0,0.003,0.002,0.005,0.004c0.239,0.207,0.495,0.394,0.762,0.56
			c0.013,0.008,0.024,0.016,0.037,0.022c0.267,0.164,0.545,0.306,0.833,0.427c0.016,0.006,0.032,0.012,0.048,0.02
			c0.897,0.365,1.91,0.518,2.901,0.418c1.085-1.367,1.769-3.09,1.769-4.967v-48v-4v-3.045l-25.09,9.104l17.056,46.996
			c0.108,0.299,0.237,0.578,0.386,0.848C58.377,101.932,58.393,101.977,58.419,102.021z"/>
		<path style="fill:#406A80;" d="M51.31,41.744c-2.073,0.752-4.372-0.32-5.125-2.395c-0.753-2.074,0.321-4.373,2.395-5.125
			c2.073-0.754,4.372,0.32,5.125,2.395C54.457,38.691,53.383,40.99,51.31,41.744z"/>
		<circle style="fill:#335466;" cx="49.944" cy="37.983" r="3"/>
		<path style="fill:#E16B5A;" d="M64,50v49.984c0,3.299-2.756,6.016-6.056,6.016h-16c-3.3,0-5.944-2.717-5.944-6.016V50H64z"/>
		<path style="fill:#CC6152;" d="M62,50v49.984c0,3.299-2.756,6.016-6.056,6.016h2c3.3,0,6.056-2.717,6.056-6.016V50H62z"/>
		<path style="fill:#F5F5F5;" d="M36,31.984V50h28V31.984c0-3.3-2.756-5.984-6.056-5.984h-16C38.644,26,36,28.684,36,31.984z"/>
		<path style="fill:#E6E6E6;" d="M57.944,26h-2c3.3,0,6.056,2.684,6.056,5.984V50h2V31.984C64,28.684,61.244,26,57.944,26z"/>
		<path style="fill:#406A80;" d="M49.944,41.984c-2.206,0-4-1.795-4-4c0-2.207,1.794-4,4-4s4,1.793,4,4
			C53.944,40.189,52.149,41.984,49.944,41.984z"/>
		<circle style="fill:#335466;" cx="49.944" cy="37.984" r="3"/>
		<rect x="36" y="50" style="fill:#CC6152;" width="28" height="1"/>
	</g>
</g>
</svg>
