<?xml version="1.0" encoding="iso-8859-1"?>
<!-- Generator: Adobe Illustrator 15.0.0, SVG Export Plug-In . SVG Version: 6.00 Build 0)  -->
<!DOCTYPE svg PUBLIC "-//W3C//DTD SVG 1.1//EN" "http://www.w3.org/Graphics/SVG/1.1/DTD/svg11.dtd">
<svg version="1.1" id="Layer_1" xmlns="http://www.w3.org/2000/svg" xmlns:xlink="http://www.w3.org/1999/xlink" x="0px" y="0px"
	 width="128px" height="128px" viewBox="0 0 128 128" style="enable-background:new 0 0 128 128;" xml:space="preserve">
<g>
	<circle style="fill:#C2D5D8;" cx="64" cy="64" r="64"/>
	<path style="fill:#B7C9CC;" d="M122.111,90.813c-0.039-0.102-0.073-0.201-0.121-0.302c-0.057-0.171-0.125-0.342-0.207-0.512
		c-0.057-0.171-0.125-0.342-0.207-0.513c-0.057-0.17-0.125-0.342-0.207-0.512c-0.057-0.17-0.125-0.342-0.207-0.512
		c-0.057-0.171-0.125-0.342-0.207-0.512c-0.057-0.171-0.125-0.342-0.207-0.512c-0.055-0.17-0.123-0.34-0.205-0.508
		c-0.055-0.174-0.125-0.346-0.208-0.518c-0.056-0.171-0.125-0.342-0.207-0.512c-0.056-0.172-0.125-0.342-0.207-0.512
		c-0.056-0.172-0.125-0.343-0.207-0.513c-0.056-0.171-0.125-0.342-0.207-0.512c-0.056-0.171-0.125-0.343-0.207-0.513
		c-0.056-0.17-0.125-0.342-0.207-0.512c-0.056-0.171-0.125-0.342-0.206-0.512c-0.057-0.171-0.125-0.342-0.207-0.512
		c-0.057-0.172-0.125-0.342-0.207-0.512c-0.056-0.172-0.125-0.343-0.207-0.514c-0.057-0.171-0.125-0.342-0.207-0.512
		c-0.057-0.171-0.125-0.342-0.207-0.512c-0.057-0.172-0.125-0.342-0.207-0.512c-0.056-0.171-0.125-0.34-0.205-0.509
		c-0.057-0.172-0.125-0.345-0.209-0.516c-0.056-0.171-0.125-0.343-0.207-0.513c-0.056-0.17-0.125-0.342-0.207-0.512
		c-0.055-0.171-0.125-0.342-0.207-0.512c-0.055-0.171-0.125-0.342-0.207-0.512c-0.055-0.172-0.125-0.342-0.207-0.514
		c-0.055-0.171-0.125-0.342-0.207-0.512c-0.055-0.171-0.125-0.342-0.206-0.512c-0.056-0.172-0.125-0.342-0.207-0.512
		c-0.056-0.172-0.125-0.343-0.207-0.513c-0.056-0.171-0.125-0.342-0.207-0.512c-0.056-0.171-0.125-0.343-0.207-0.513
		c-0.056-0.17-0.125-0.342-0.207-0.512c-0.056-0.171-0.125-0.342-0.207-0.512c-0.056-0.17-0.123-0.339-0.205-0.508
		c-0.056-0.174-0.125-0.346-0.208-0.518c-0.057-0.17-0.125-0.342-0.207-0.512c-0.057-0.171-0.125-0.342-0.207-0.512
		c-0.056-0.171-0.125-0.342-0.207-0.512c-0.056-0.172-0.125-0.342-0.207-0.512c-0.056-0.172-0.125-0.343-0.207-0.513
		c-0.056-0.171-0.125-0.342-0.207-0.512c-0.056-0.171-0.125-0.343-0.207-0.513c-0.056-0.17-0.125-0.341-0.207-0.512
		c-0.055-0.171-0.125-0.342-0.207-0.513c-0.056-0.171-0.125-0.343-0.207-0.513c-0.056-0.17-0.125-0.342-0.207-0.512
		c-0.056-0.171-0.125-0.342-0.207-0.512c-0.056-0.171-0.125-0.342-0.207-0.512c-0.056-0.171-0.125-0.342-0.207-0.512
		c-0.055-0.17-0.123-0.339-0.205-0.508c-0.056-0.172-0.125-0.345-0.207-0.516c-0.057-0.171-0.125-0.342-0.207-0.512
		c-0.055-0.171-0.125-0.341-0.207-0.512c-0.055-0.171-0.125-0.342-0.207-0.513c-0.057-0.171-0.125-0.342-0.207-0.512
		c-0.057-0.171-0.125-0.342-0.207-0.512c-0.057-0.171-0.125-0.342-0.207-0.512c-0.057-0.171-0.125-0.342-0.207-0.512
		c-0.057-0.171-0.125-0.342-0.207-0.512c-0.057-0.171-0.125-0.342-0.207-0.512c-0.057-0.171-0.125-0.342-0.207-0.512
		c-0.057-0.171-0.125-0.342-0.207-0.512c-0.055-0.171-0.125-0.341-0.207-0.512c-0.055-0.171-0.125-0.342-0.207-0.513
		c-0.055-0.17-0.124-0.339-0.205-0.508c-0.057-0.173-0.125-0.345-0.208-0.516c-0.056-0.171-0.125-0.342-0.207-0.512
		c-0.056-0.171-0.125-0.342-0.207-0.512c-0.056-0.171-0.125-0.342-0.207-0.512c-0.056-0.171-0.125-0.342-0.207-0.512
		c-0.056-0.171-0.125-0.342-0.207-0.512c-0.056-0.171-0.125-0.342-0.206-0.512c-0.057-0.171-0.125-0.341-0.207-0.512
		c-0.056-0.171-0.125-0.342-0.207-0.513c-0.057-0.171-0.125-0.342-0.207-0.512c-0.057-0.171-0.125-0.342-0.207-0.512
		c-0.057-0.171-0.125-0.342-0.207-0.512c-0.057-0.171-0.125-0.342-0.207-0.512c-0.057-0.171-0.125-0.342-0.207-0.512
		c-0.056-0.17-0.125-0.339-0.205-0.508c-0.057-0.173-0.125-0.345-0.209-0.516c-0.056-0.171-0.125-0.342-0.207-0.512
		c-0.055-0.171-0.125-0.342-0.207-0.512c-0.055-0.171-0.125-0.341-0.207-0.512c-0.055-0.171-0.125-0.342-0.207-0.513
		c-0.055-0.171-0.125-0.342-0.207-0.512c-0.055-0.171-0.125-0.342-0.206-0.512c-0.056-0.171-0.125-0.342-0.207-0.512
		c-0.056-0.171-0.125-0.342-0.207-0.512c-0.056-0.171-0.125-0.342-0.207-0.512c-0.056-0.171-0.125-0.342-0.207-0.512
		c-0.056-0.171-0.125-0.342-0.207-0.512c-0.056-0.171-0.125-0.342-0.207-0.512c-0.056-0.171-0.125-0.341-0.207-0.512
		c-0.056-0.17-0.123-0.34-0.205-0.509c-0.056-0.172-0.125-0.345-0.208-0.516c-0.057-0.171-0.125-0.342-0.207-0.512
		c-0.056-0.171-0.125-0.342-0.207-0.512c-0.056-0.171-0.125-0.342-0.207-0.512c-0.056-0.171-0.125-0.342-0.207-0.512
		c-0.056-0.171-0.125-0.342-0.207-0.512c-0.271-0.845-0.885-1.673-1.76-2.546l-2.121-2.121l-7.777-7.778
		c-2.295-2.293-4.266-2.807-7.072,0l-6.363,6.364l-0.707,0.707l-0.234,0.236l-3.301,3.3l-0.707,0.707l-0.707,0.708L37.191,69.357
		l-4.949,19.799l-0.223,0.889c-0.121,0.483-0.045,0.875,0.166,1.143c0.026,0.203,0.099,0.374,0.207,0.512
		c0.026,0.203,0.099,0.374,0.207,0.512c0.026,0.203,0.098,0.375,0.207,0.513c0.026,0.203,0.098,0.374,0.207,0.512
		c0.026,0.203,0.098,0.374,0.207,0.513c0.026,0.201,0.098,0.373,0.206,0.51c0.026,0.203,0.099,0.375,0.207,0.515
		c0.026,0.203,0.099,0.375,0.207,0.513c0.026,0.203,0.099,0.375,0.207,0.512c0.026,0.203,0.099,0.375,0.207,0.513
		c0.026,0.203,0.099,0.374,0.207,0.512c0.026,0.203,0.099,0.374,0.207,0.513c0.026,0.203,0.099,0.373,0.207,0.512
		c0.026,0.203,0.099,0.374,0.207,0.512c0.026,0.203,0.099,0.374,0.207,0.512c0.026,0.203,0.099,0.375,0.207,0.512
		c0.026,0.203,0.099,0.375,0.207,0.513c0.026,0.203,0.098,0.374,0.207,0.513c0.026,0.203,0.098,0.374,0.207,0.512
		c0.026,0.203,0.098,0.375,0.207,0.513c0.026,0.202,0.098,0.373,0.206,0.511c0.025,0.203,0.098,0.375,0.207,0.514
		c0.025,0.203,0.098,0.375,0.207,0.513c0.025,0.202,0.098,0.374,0.207,0.512c0.025,0.203,0.098,0.374,0.207,0.513
		c0.025,0.202,0.098,0.373,0.207,0.512c0.025,0.203,0.098,0.373,0.207,0.512c0.025,0.203,0.098,0.374,0.207,0.512
		c0.025,0.203,0.098,0.374,0.207,0.514c0.025,0.203,0.098,0.373,0.207,0.512c0.025,0.203,0.098,0.374,0.207,0.512
		c0.025,0.203,0.098,0.374,0.207,0.512c0.025,0.203,0.098,0.375,0.207,0.512c0.025,0.203,0.098,0.375,0.207,0.513
		c0.025,0.203,0.098,0.374,0.207,0.512c0.025,0.202,0.098,0.373,0.205,0.511c0.026,0.203,0.098,0.375,0.207,0.515
		c0.026,0.202,0.098,0.374,0.207,0.512c0.026,0.203,0.098,0.375,0.207,0.513c0.026,0.203,0.098,0.375,0.207,0.512
		c0.026,0.203,0.098,0.375,0.207,0.513c0.025,0.203,0.098,0.374,0.207,0.513c0.025,0.202,0.098,0.373,0.207,0.512
		c0.025,0.203,0.098,0.373,0.207,0.512c0.025,0.203,0.098,0.374,0.207,0.512c0.025,0.203,0.098,0.374,0.207,0.512
		c0.025,0.203,0.098,0.375,0.207,0.513c0.025,0.202,0.098,0.374,0.207,0.512c0.025,0.203,0.098,0.374,0.207,0.513
		c0.025,0.203,0.098,0.375,0.207,0.512c0.025,0.203,0.098,0.373,0.206,0.512c0.026,0.203,0.098,0.375,0.206,0.514
		c0.027,0.203,0.099,0.374,0.207,0.512c0.027,0.203,0.099,0.375,0.207,0.513c0.027,0.202,0.099,0.374,0.207,0.512
		c0.027,0.203,0.099,0.374,0.207,0.513c0.026,0.202,0.099,0.373,0.207,0.512c0.026,0.203,0.099,0.373,0.207,0.512
		c0.026,0.203,0.099,0.375,0.207,0.513c0.026,0.203,0.099,0.374,0.207,0.513c0.026,0.203,0.099,0.373,0.207,0.512
		c0.026,0.203,0.099,0.374,0.207,0.512c0.026,0.203,0.099,0.374,0.207,0.512c0.026,0.203,0.098,0.375,0.207,0.513
		c0.026,0.202,0.098,0.374,0.207,0.512c0.026,0.203,0.098,0.374,0.207,0.513c0.022,0.17,0.084,0.314,0.166,0.44
		C51.718,127.088,57.751,128,64,128C89.77,128,111.968,112.762,122.111,90.813z"/>
	<g>
		<path style="fill:#E78244;" d="M75.63,30.921l6.106-6.107c2.808-2.807,5.238-2.346,7.533-0.052l9.899,9.899
			c2.292,2.292,2.343,4.317-0.462,7.123L92.6,47.891L75.63,30.921z"/>
		<path style="fill:#D97A40;" d="M99.17,34.662l-2.122-2.122c2.293,2.292,2.345,4.317-0.461,7.123L90.48,45.77l2.121,2.122
			l6.106-6.107C101.514,38.979,101.462,36.955,99.17,34.662z"/>
		
			<rect x="63.85" y="43.993" transform="matrix(-0.7071 -0.7071 0.7071 -0.7071 68.4519 162.3418)" style="fill:#BF5347;" width="7.999" height="46"/>
		
			<rect x="52.537" y="32.683" transform="matrix(-0.707 -0.7072 0.7072 -0.707 57.1348 135.0332)" style="fill:#E66356;" width="8" height="45.999"/>
		
			<rect x="58.194" y="38.336" transform="matrix(-0.7071 -0.7071 0.7071 -0.7071 62.7954 148.6856)" style="fill:#CC584C;" width="7.999" height="46.001"/>
		<path style="fill:#FFD599;" d="M54.16,82.089c-0.631-0.629-1.471-0.909-2.294-0.862c0.633-1.334,0.506-3.002-0.558-4.064
			c-1.367-1.367-3.604-1.346-4.972,0.021c1.367-1.367,1.323-3.539-0.044-4.906c-1.063-1.062-2.686-1.234-3.999-0.623
			c0.047-0.824-0.233-1.664-0.862-2.293c-1.172-1.172-3.07-1.172-4.242,0l-5.172,20.687c-0.269,1.067,0.389,1.722,1.455,1.456
			l20.688-5.172C55.332,85.16,55.332,83.261,54.16,82.089z"/>
		<path style="fill:#F2CA91;" d="M54.16,82.089c-0.389-0.387-0.857-0.627-1.352-0.754c0.26,0.996,0.01,2.097-0.771,2.876l-19.8,4.95
			l-0.223,0.888c-0.268,1.067,0.389,1.723,1.457,1.456l20.687-5.172C55.332,85.16,55.332,83.261,54.16,82.089z"/>
		<path style="fill:#242424;" d="M38.604,84.918c-1.354-1.354-3.285-1.747-4.996-1.223l-1.59,6.354
			c-0.267,1.067,0.39,1.723,1.457,1.456l6.353-1.588C40.352,88.204,39.959,86.273,38.604,84.918z"/>
		<path style="fill:#1A1A1A;" d="M40.111,87.449l-7.668,1.917l-0.221,0.888c-0.269,1.067,0.389,1.723,1.455,1.456l6.352-1.589
			C40.297,89.252,40.324,88.327,40.111,87.449z"/>
		
			<rect x="69.285" y="38.236" transform="matrix(-0.7071 -0.7071 0.7071 -0.7071 108.8955 129.5776)" style="fill:#F5F5F5;" width="23.999" height="7.999"/>
		
			<rect x="72.467" y="38.554" transform="matrix(-0.7071 -0.7071 0.7071 -0.7071 116.5801 126.395)" style="fill:#D97A40;" width="24" height="1"/>
		
			<rect x="66.102" y="44.917" transform="matrix(-0.7071 -0.7071 0.7071 -0.7071 101.2128 132.7581)" style="opacity:0.6;fill:#B34D42;enable-background:new    ;" width="23.999" height="1"/>
		
			<rect x="71.053" y="39.967" transform="matrix(-0.7071 -0.7071 0.7071 -0.7071 113.1652 127.8091)" style="fill:#CCCCCC;" width="24" height="1"/>
		
			<rect x="67.516" y="43.503" transform="matrix(-0.7071 -0.7071 0.7071 -0.7071 104.6285 131.345)" style="fill:#CCCCCC;" width="24" height="1.001"/>
		<circle style="fill:#CCCCCC;" cx="86.893" cy="48.354" r="1"/>
		<circle style="fill:#CCCCCC;" cx="84.063" cy="45.525" r="1"/>
		<circle style="fill:#CCCCCC;" cx="81.234" cy="42.697" r="1"/>
		<circle style="fill:#CCCCCC;" cx="78.407" cy="39.868" r="1"/>
		<circle style="fill:#CCCCCC;" cx="75.578" cy="37.04" r="1"/>
	</g>
</g>
</svg>
