<?xml version="1.0" encoding="iso-8859-1"?>
<!-- Generator: Adobe Illustrator 15.0.0, SVG Export Plug-In . SVG Version: 6.00 Build 0)  -->
<!DOCTYPE svg PUBLIC "-//W3C//DTD SVG 1.1//EN" "http://www.w3.org/Graphics/SVG/1.1/DTD/svg11.dtd">
<svg version="1.1" id="Layer_1" xmlns="http://www.w3.org/2000/svg" xmlns:xlink="http://www.w3.org/1999/xlink" x="0px" y="0px"
	 width="128px" height="128px" viewBox="0 0 128 128" style="enable-background:new 0 0 128 128;" xml:space="preserve">
<g>
	<circle style="fill:#88C5CC;" cx="64" cy="64" r="64"/>
	<path style="fill:#80B9BF;" d="M121.514,92.088L97.813,33.757c-0.695-1.785-1.746-3.467-3.174-4.896
		c-0.269-0.27-0.547-0.52-0.828-0.761c-0.244-0.214-0.494-0.412-0.748-0.607c-0.002-0.002-0.004-0.004-0.006-0.005l0.002,0.001
		c-5.295-4.094-12.428-4.42-16.806-0.043l-8.485,8.485l-2.121-2.12c-0.389-0.39-1.024-0.39-1.414,0
		c-0.359,0.358-0.371,0.922-0.066,1.313c0.018,0.186,0.088,0.359,0.207,0.513c0.018,0.185,0.088,0.357,0.206,0.511
		c0.018,0.186,0.088,0.36,0.208,0.515c0.019,0.185,0.087,0.358,0.207,0.512c0.019,0.186,0.087,0.359,0.207,0.513
		c0.019,0.186,0.087,0.359,0.207,0.513c0.002,0.026,0.01,0.053,0.015,0.079L45.849,57.853l0,0l-7.071,7.071
		c-4.243,4.242,2.121,14.85-2.829,19.799l17.238,42.35c3.518,0.6,7.127,0.928,10.814,0.928
		C89.268,128,111.109,113.352,121.514,92.088z"/>
	<g>
		<path style="fill:#263740;" d="M41,98c0,1.951-1.908,4-4,4s-4-2.049-4-4s1.908-7,4-7S41,96.049,41,98z"/>
		<path style="fill:#1E2C33;" d="M37,91c-0.341,0-0.676,0.145-1,0.377c1.662,1.197,3,4.99,3,6.623s-1.34,3.314-3,3.828
			c0.325,0.1,0.658,0.172,1,0.172c2.092,0,4-2.049,4-4S39.092,91,37,91z"/>
	</g>
	<g>
		<path style="fill:#CC584C;" d="M65.646,38.054l10.605-10.606c4.829-4.829,13.02-3.95,18.385,1.415
			c5.37,5.37,5.537,14.262,0.707,19.092l-9.898,9.899L65.646,38.054z"/>
		<path style="fill:#BF5347;" d="M94.639,28.862c-0.502-0.502-1.035-0.95-1.582-1.373c4.102,5.411,3.877,13.22-0.541,17.636
			l-9.897,9.9l2.827,2.828l9.9-9.899C100.175,43.124,100.008,34.232,94.639,28.862z"/>
		<path style="fill:#E6E6E6;" d="M67.061,36.64L38.777,64.924c-4.243,4.242,2.121,14.85-2.829,19.799
			c0.707,0.707,1.414,1.414,1.414,1.414s0.708,0.707,1.415,1.416c4.95-4.951,15.556,1.414,19.799-2.83l28.283-28.284L67.061,36.64z"
			/>
		<path style="fill:#D9D9D9;" d="M84.031,53.611L55.746,81.893c-4.242,4.244-14.849-2.119-19.798,2.83
			c0.707,0.707,1.414,1.414,1.414,1.414s0.708,0.707,1.415,1.414c4.95-4.951,15.556,1.414,19.799-2.828l28.283-28.285L84.031,53.611
			z"/>
		<path style="fill:#263740;" d="M89.688,59.267c-0.39,0.39-1.025,0.39-1.414,0L64.232,35.226c-0.389-0.389-0.389-1.024,0-1.414l0,0
			c0.389-0.389,1.025-0.389,1.415,0l24.041,24.041C90.076,58.242,90.076,58.878,89.688,59.267L89.688,59.267z"/>
		<path style="fill:#263740;" d="M35.948,84.723c0.707,0.707,1.414,1.414,1.414,1.414s0.708,0.707,1.415,1.416
			c4.95-4.951,15.556,1.414,19.799-2.83l7.07-7.07c-10.606,0-11.313-18.385-19.798-19.799l-7.071,7.071
			C34.534,69.166,40.897,79.773,35.948,84.723z"/>
		<path style="fill:#1E2C33;" d="M55.746,81.895c-4.242,4.242-14.849-2.121-19.798,2.828c0.707,0.707,1.414,1.414,1.414,1.414
			s0.708,0.707,1.415,1.416c4.95-4.951,15.556,1.414,19.799-2.83l7.07-7.07c-1.692,0-3.131-0.473-4.393-1.266L55.746,81.895z"/>
	</g>
</g>
</svg>
