<?xml version="1.0" encoding="iso-8859-1"?>
<!-- Generator: Adobe Illustrator 15.0.0, SVG Export Plug-In . SVG Version: 6.00 Build 0)  -->
<!DOCTYPE svg PUBLIC "-//W3C//DTD SVG 1.1//EN" "http://www.w3.org/Graphics/SVG/1.1/DTD/svg11.dtd">
<svg version="1.1" id="Layer_1" xmlns="http://www.w3.org/2000/svg" xmlns:xlink="http://www.w3.org/1999/xlink" x="0px" y="0px"
	 width="128px" height="128px" viewBox="0 0 128 128" style="enable-background:new 0 0 128 128;" xml:space="preserve">
<g>
	<circle style="fill:#88C5CC;" cx="64" cy="64" r="64"/>
	<path style="fill:#E6E6E6;" d="M114,80c0,2.2-1.8,4-4,4H18c-2.2,0-4-1.8-4-4V48c0-2.2,1.8-4,4-4h92c2.2,0,4,1.8,4,4V80z"/>
	<path style="fill:#CCCCCC;" d="M110,44h-4c2.2,0,4,1.8,4,4v32c0,2.2-1.8,4-4,4h4c2.2,0,4-1.8,4-4V48C114,45.8,112.2,44,110,44z"/>
	<rect x="14" y="63" style="fill:#406A80;" width="100" height="4"/>
	<g>
		<path style="fill:#242424;" d="M34,84v3c0,0.55-0.45,1-1,1h-8c-0.55,0-1-0.45-1-1v-3H34z"/>
		<path style="fill:#242424;" d="M104,84v3c0,0.55-0.45,1-1,1h-8c-0.55,0-1-0.45-1-1v-3H104z"/>
	</g>
	<circle style="fill:#F5F5F5;" cx="81" cy="56" r="20"/>
	<path style="fill:#263740;" d="M81,72c-8.822,0-16-7.178-16-16s7.178-16,16-16s16,7.178,16,16S89.822,72,81,72z"/>
	<path style="fill:#242424;" d="M81,64c-4.411,0-8-3.589-8-8s3.589-8,8-8s8,3.589,8,8S85.411,64,81,64z"/>
	<g>
		<path style="fill:#242424;" d="M20,56c0,1.104,0.896,2,2,2s2-0.896,2-2V44h-4V56z"/>
		<path style="fill:#242424;" d="M28,56c0,1.104,0.896,2,2,2s2-0.896,2-2V44h-4V56z"/>
		<path style="fill:#242424;" d="M36,44v12c0,1.104,0.896,2,2,2s2-0.896,2-2V44H36z"/>
	</g>
</g>
</svg>
