<?xml version="1.0" encoding="iso-8859-1"?>
<!-- Generator: Adobe Illustrator 15.0.0, SVG Export Plug-In . SVG Version: 6.00 Build 0)  -->
<!DOCTYPE svg PUBLIC "-//W3C//DTD SVG 1.1//EN" "http://www.w3.org/Graphics/SVG/1.1/DTD/svg11.dtd">
<svg version="1.1" id="Layer_1" xmlns="http://www.w3.org/2000/svg" xmlns:xlink="http://www.w3.org/1999/xlink" x="0px" y="0px"
	 width="128px" height="128px" viewBox="0 0 128 128" style="enable-background:new 0 0 128 128;" xml:space="preserve">
<g>
	<circle style="fill:#88C5CC;" cx="64" cy="64" r="64"/>
	<path style="fill:#E6E6E6;" d="M31.414,24.414C30.637,23.637,30,23.9,30,25v70c0,1.1,0.9,2,2,2h70c1.1,0,1.363-0.637,0.586-1.414
		L31.414,24.414z M38,44.313c0-1.1,0.637-1.362,1.414-0.586l43.857,43.858C84.05,88.363,83.786,89,82.688,89H40c-1.1,0-2-0.9-2-2
		V44.313z"/>
	<rect x="30" y="32" style="fill:#B3B3B3;" width="6" height="1"/>
	<rect x="30" y="42" style="fill:#B3B3B3;" width="6" height="1"/>
	<rect x="30" y="34" style="fill:#B3B3B3;" width="2" height="1"/>
	<rect x="30" y="36" style="fill:#B3B3B3;" width="2" height="1"/>
	<rect x="30" y="38" style="fill:#B3B3B3;" width="2" height="1"/>
	<rect x="30" y="40" style="fill:#B3B3B3;" width="2" height="1"/>
	<rect x="30" y="52" style="fill:#B3B3B3;" width="6" height="1"/>
	<rect x="30" y="44" style="fill:#B3B3B3;" width="2" height="1"/>
	<rect x="30" y="46" style="fill:#B3B3B3;" width="2" height="1"/>
	<rect x="30" y="48" style="fill:#B3B3B3;" width="2" height="1"/>
	<rect x="30" y="50" style="fill:#B3B3B3;" width="2" height="1"/>
	<rect x="30" y="62" style="fill:#B3B3B3;" width="6" height="1"/>
	<rect x="30" y="54" style="fill:#B3B3B3;" width="2" height="1"/>
	<rect x="30" y="56" style="fill:#B3B3B3;" width="2" height="1"/>
	<rect x="30" y="58" style="fill:#B3B3B3;" width="2" height="1"/>
	<rect x="30" y="60" style="fill:#B3B3B3;" width="2" height="1"/>
	<rect x="30" y="72" style="fill:#B3B3B3;" width="6" height="1"/>
	<rect x="30" y="64" style="fill:#B3B3B3;" width="2" height="1"/>
	<rect x="30" y="66" style="fill:#B3B3B3;" width="2" height="1"/>
	<rect x="30" y="68" style="fill:#B3B3B3;" width="2" height="1"/>
	<rect x="30" y="70" style="fill:#B3B3B3;" width="2" height="1"/>
	<rect x="30" y="82" style="fill:#B3B3B3;" width="6" height="1"/>
	<rect x="30" y="74" style="fill:#B3B3B3;" width="2" height="1"/>
	<rect x="30" y="76" style="fill:#B3B3B3;" width="2" height="1"/>
	<rect x="30" y="78" style="fill:#B3B3B3;" width="2" height="1"/>
	<rect x="30" y="80" style="fill:#B3B3B3;" width="2" height="1"/>
	<rect x="30" y="92" style="fill:#B3B3B3;" width="6" height="1"/>
	<rect x="30" y="84" style="fill:#B3B3B3;" width="2" height="1"/>
	<rect x="30" y="86" style="fill:#B3B3B3;" width="2" height="1"/>
	<rect x="30" y="88" style="fill:#B3B3B3;" width="2" height="1"/>
	<rect x="30" y="90" style="fill:#B3B3B3;" width="2" height="1"/>
</g>
</svg>
