<?xml version="1.0" encoding="iso-8859-1"?>
<!-- Generator: Adobe Illustrator 15.0.0, SVG Export Plug-In . SVG Version: 6.00 Build 0)  -->
<!DOCTYPE svg PUBLIC "-//W3C//DTD SVG 1.1//EN" "http://www.w3.org/Graphics/SVG/1.1/DTD/svg11.dtd">
<svg version="1.1" id="Layer_1" xmlns="http://www.w3.org/2000/svg" xmlns:xlink="http://www.w3.org/1999/xlink" x="0px" y="0px"
	 width="128px" height="128px" viewBox="0 0 128 128" style="enable-background:new 0 0 128 128;" xml:space="preserve">
<g>
	<circle style="fill:#F2CF61;" cx="64" cy="64" r="64"/>
	<path style="fill:#A4BFCC;" d="M44.636,24.5c-5.463,0-18.875,4.516-18.875,19.695c0,16.879,8.821,59.305,21.604,59.305
		c12.797,0,12.173-12.637,11.181-20.429c-1.183-9.237-2.303-24.067-0.432-38.828C59.848,30.455,54.321,24.5,44.636,24.5z"/>
	<path style="fill:#C2E2F2;" d="M47.363,101.5c-10.328,0-19.604-38.923-19.604-57.305c0-14.547,13.526-17.695,16.875-17.695
		c3.998,0,7.005,1.11,8.938,3.301c2.521,2.858,3.38,7.634,2.555,14.192c-1.992,15.72-0.585,31.391,0.433,39.332
		c0.629,4.932,1.093,11.91-2.108,15.545C52.893,100.64,50.574,101.5,47.363,101.5z"/>
	<path style="fill:#B8D6E6;" d="M56.561,83.325c-1.018-7.941-2.425-23.612-0.433-39.332c0.825-6.56-0.034-11.334-2.555-14.192
		c-1.934-2.189-4.939-3.301-8.938-3.301c-0.219,0-0.482,0.015-0.783,0.044c3.394,0.208,5.99,1.296,7.722,3.257
		c2.521,2.858,3.38,7.634,2.555,14.192c-0.079,0.621-0.144,1.242-0.212,1.862c-0.815-3.552-2.135-6.305-3.916-7.863V36
		c0-1.104-0.896-2-2-2c-1.104,0-2,0.896-2,2v2.034c-4.642,3.639-18.473,14.596-5.738,36.956c0.369,0.646,1.045,1.01,1.74,1.01
		c0.335,0,0.676-0.084,0.988-0.262c0.959-0.547,1.294-1.77,0.748-2.729c-10.615-18.64-0.464-27.708,4.211-31.419
		c2.786,3.499,4.402,14.859,1.104,28.953c-0.252,1.075,0.416,2.151,1.491,2.403c1.072,0.253,2.151-0.415,2.403-1.491
		c0.143-0.608,0.272-1.215,0.399-1.82c0.282,5.56,0.781,10.323,1.213,13.689c0.629,4.932,1.093,11.91-2.108,15.545
		c-1.333,1.513-3.228,2.354-5.753,2.57c0.222,0.034,0.442,0.06,0.665,0.06c3.211,0,5.528-0.86,7.088-2.63
		C57.652,95.235,57.188,88.257,56.561,83.325z"/>
	<path style="fill:#406A80;" d="M48,37.992V36c0-1.104-0.896-2-2-2s-2,0.896-2,2v2.034c-4.642,3.639-18.473,14.596-5.738,36.956
		c0.369,0.646,1.045,1.01,1.74,1.01c0.335,0,0.676-0.084,0.988-0.262c0.959-0.547,1.294-1.77,0.748-2.729
		c-10.615-18.64-0.464-27.708,4.211-31.419c2.786,3.499,4.402,14.859,1.104,28.953c-0.252,1.075,0.416,2.151,1.491,2.403
		c1.072,0.253,2.151-0.415,2.403-1.491C54.422,56.618,53.09,42.449,48,37.992z"/>
	<path style="fill:#A4BFCC;" d="M81.395,24.5c5.464,0,18.875,4.516,18.875,19.695c0,16.879-8.82,59.305-21.603,59.305
		c-12.797,0-12.173-12.637-11.181-20.429c1.183-9.237,2.303-24.067,0.432-38.828C66.183,30.455,71.709,24.5,81.395,24.5z"/>
	<path style="fill:#C2E2F2;" d="M78.667,101.5c10.328,0,19.603-38.923,19.603-57.305c0-14.547-13.525-17.695-16.875-17.695
		c-3.997,0-7.005,1.11-8.938,3.301c-2.521,2.858-3.38,7.634-2.555,14.192c1.991,15.72,0.585,31.391-0.434,39.332
		c-0.628,4.932-1.092,11.91,2.109,15.545C73.138,100.64,75.456,101.5,78.667,101.5z"/>
	<path style="fill:#B8D6E6;" d="M81.395,26.5c-0.419,0-0.819,0.02-1.217,0.044C84.456,26.961,96.27,30.6,96.27,44.195
		c0,3.971-0.434,8.898-1.217,14.188C95.4,46.919,87.557,40.622,84,38.034V36c0-1.104-0.896-2-2-2c-1.104,0-2,0.896-2,2v1.992
		c-5,4.457-6.407,18.626-2.933,33.464c0.252,1.076,1.347,1.744,2.419,1.491c1.074-0.252,1.741-1.328,1.489-2.403
		C77.677,56.45,79.293,45.09,82.08,41.591c4.675,3.711,14.825,12.779,4.21,31.419c-0.546,0.96-0.213,2.183,0.746,2.729
		c0.313,0.178,0.648,0.262,0.983,0.262c0.695,0,1.364-0.362,1.733-1.01c1.846-3.241,3.126-6.235,3.976-9.009
		c-3.343,16.816-9.599,34.369-16.396,35.459c0.428,0.035,0.869,0.06,1.335,0.06c10.328,0,19.603-38.923,19.603-57.305
		C98.27,29.648,84.743,26.5,81.395,26.5z"/>
	<path style="fill:#406A80;" d="M78,37.992V36c0-1.104,0.896-2,2-2s2,0.896,2,2v2.034c5,3.639,18.488,14.596,5.754,36.956
		C87.385,75.637,86.716,76,86.021,76c-0.336,0-0.673-0.084-0.984-0.262c-0.959-0.547-1.292-1.77-0.746-2.729
		c10.615-18.64,0.465-27.708-4.21-31.419c-2.786,3.499-4.402,14.859-1.104,28.953c0.252,1.075-0.415,2.151-1.489,2.403
		c-1.072,0.253-2.167-0.415-2.419-1.491C71.593,56.618,73,42.449,78,37.992z"/>
</g>
</svg>
