<?xml version="1.0" encoding="iso-8859-1"?>
<!-- Generator: Adobe Illustrator 15.0.0, SVG Export Plug-In . SVG Version: 6.00 Build 0)  -->
<!DOCTYPE svg PUBLIC "-//W3C//DTD SVG 1.1//EN" "http://www.w3.org/Graphics/SVG/1.1/DTD/svg11.dtd">
<svg version="1.1" id="Layer_1" xmlns="http://www.w3.org/2000/svg" xmlns:xlink="http://www.w3.org/1999/xlink" x="0px" y="0px"
	 width="128px" height="128px" viewBox="0 0 128 128" style="enable-background:new 0 0 128 128;" xml:space="preserve">
<g>
	<circle style="fill:#88C5CC;" cx="64" cy="64" r="64"/>
	<path style="fill:#80B9BF;" d="M121.732,91.649c-0.043-0.108-0.076-0.225-0.133-0.326c-0.06-0.217-0.144-0.422-0.248-0.615
		c-0.061-0.216-0.144-0.419-0.248-0.612c-0.061-0.218-0.145-0.424-0.25-0.617c-0.06-0.216-0.143-0.419-0.246-0.61
		c-0.061-0.216-0.145-0.421-0.248-0.614c-0.061-0.217-0.145-0.422-0.248-0.615c-0.062-0.216-0.145-0.419-0.248-0.611
		c-0.061-0.217-0.145-0.421-0.248-0.614c-0.061-0.216-0.145-0.421-0.248-0.614c-0.061-0.217-0.145-0.422-0.248-0.615
		c-0.061-0.216-0.145-0.419-0.248-0.611c-0.061-0.216-0.145-0.421-0.248-0.614c-0.061-0.216-0.145-0.421-0.248-0.614
		c-0.061-0.217-0.145-0.422-0.248-0.615c-0.061-0.216-0.144-0.419-0.248-0.611c-0.06-0.216-0.144-0.421-0.248-0.614
		c-0.06-0.216-0.144-0.421-0.248-0.614c-0.06-0.216-0.144-0.421-0.248-0.613c-0.06-0.218-0.144-0.423-0.248-0.615
		c-0.061-0.216-0.144-0.419-0.248-0.612c-0.06-0.216-0.144-0.421-0.248-0.614c-0.06-0.216-0.144-0.421-0.248-0.613
		c-0.059-0.218-0.144-0.422-0.247-0.615c-0.062-0.216-0.144-0.419-0.248-0.612c-0.06-0.216-0.144-0.421-0.248-0.614
		c-0.06-0.216-0.144-0.421-0.248-0.613c-0.06-0.217-0.144-0.422-0.248-0.615c-0.062-0.218-0.146-0.422-0.25-0.616
		c-0.062-0.215-0.144-0.418-0.247-0.61c-0.061-0.216-0.145-0.421-0.248-0.613c-0.061-0.216-0.145-0.421-0.248-0.614
		c-0.06-0.217-0.144-0.422-0.248-0.615c-0.061-0.216-0.144-0.419-0.248-0.611c-0.06-0.217-0.144-0.422-0.248-0.614
		c-0.06-0.216-0.144-0.421-0.248-0.614c-0.06-0.217-0.144-0.422-0.248-0.615c-0.061-0.216-0.144-0.419-0.248-0.611
		c-0.06-0.217-0.144-0.421-0.248-0.614c-0.06-0.216-0.144-0.421-0.248-0.614c-0.059-0.217-0.144-0.422-0.247-0.615
		c-0.062-0.216-0.144-0.419-0.248-0.611c-0.06-0.216-0.144-0.421-0.248-0.614c-0.06-0.216-0.144-0.421-0.248-0.614
		c-0.06-0.216-0.144-0.421-0.248-0.614c-0.06-0.217-0.144-0.422-0.248-0.614c-0.062-0.216-0.144-0.419-0.248-0.612
		c-0.06-0.216-0.144-0.421-0.248-0.614c-0.06-0.216-0.144-0.421-0.247-0.614c-0.061-0.217-0.145-0.422-0.248-0.614
		c-0.062-0.216-0.145-0.419-0.248-0.612c-0.061-0.216-0.145-0.421-0.248-0.614c-0.061-0.216-0.145-0.421-0.248-0.613
		c-0.062-0.219-0.146-0.426-0.252-0.62c-0.06-0.213-0.143-0.416-0.246-0.607c-0.06-0.216-0.144-0.421-0.248-0.614
		c-0.06-0.216-0.144-0.421-0.248-0.613c-0.059-0.218-0.144-0.423-0.247-0.615c-0.062-0.216-0.144-0.419-0.248-0.612
		c-0.06-0.216-0.144-0.421-0.248-0.614c-0.06-0.216-0.144-0.421-0.248-0.613c-0.06-0.216-0.144-0.421-0.248-0.614
		c-0.06-0.217-0.144-0.422-0.248-0.615c-0.062-0.216-0.144-0.419-0.248-0.611c-0.06-0.217-0.144-0.422-0.248-0.614
		c-0.352-1.267-1.5-2.199-2.878-2.199c-1.482,0-2.705,1.077-2.947,2.49c-0.033,0.165-0.053,0.335-0.053,0.51
		c0,0.6-0.033,1.19-0.083,1.775c-0.028,0.323-0.073,0.642-0.116,0.961c-0.031,0.229-0.06,0.461-0.098,0.688
		c-0.072,0.426-0.158,0.847-0.256,1.263c-0.021,0.09-0.042,0.18-0.064,0.27c-0.117,0.477-0.25,0.947-0.398,1.409
		c-0.42,1.292-0.967,2.514-1.615,3.661c-0.033-0.075-0.078-0.144-0.117-0.215c-0.06-0.217-0.144-0.422-0.248-0.614
		c-0.06-0.217-0.144-0.422-0.248-0.615c-0.061-0.216-0.144-0.419-0.248-0.612c-0.06-0.216-0.144-0.421-0.248-0.613
		c-0.06-0.217-0.144-0.422-0.248-0.614c-0.061-0.218-0.145-0.425-0.25-0.62c-0.061-0.213-0.144-0.416-0.246-0.607
		c-0.061-0.216-0.145-0.421-0.248-0.613c-0.061-0.217-0.145-0.422-0.248-0.614c-0.061-0.217-0.145-0.422-0.248-0.615
		c-0.061-0.216-0.145-0.419-0.248-0.612c-0.061-0.216-0.145-0.421-0.248-0.613c-0.061-0.217-0.145-0.421-0.248-0.614
		c-0.061-0.216-0.145-0.421-0.248-0.614c-0.061-0.217-0.145-0.422-0.248-0.615c-0.061-0.216-0.145-0.419-0.248-0.611
		c-0.061-0.216-0.145-0.421-0.248-0.614c-0.352-1.266-1.5-2.199-2.878-2.199h-65c-1.657,0-3,1.343-3,3
		c0,0.516,0.142,0.991,0.37,1.415c0.061,0.216,0.145,0.421,0.248,0.614c0.061,0.217,0.145,0.422,0.248,0.615
		c0.061,0.216,0.145,0.419,0.248,0.611c0.061,0.217,0.145,0.421,0.248,0.614c0.06,0.216,0.144,0.421,0.248,0.614
		c0.06,0.216,0.144,0.421,0.248,0.614c0.06,0.217,0.144,0.422,0.248,0.614c0.061,0.217,0.144,0.419,0.248,0.612
		c0.06,0.216,0.144,0.421,0.248,0.614c0.06,0.216,0.144,0.421,0.248,0.614c0.061,0.218,0.145,0.425,0.25,0.619
		c0.061,0.214,0.144,0.416,0.246,0.607c0.061,0.216,0.145,0.421,0.248,0.614c0.061,0.216,0.145,0.421,0.248,0.614
		c0.061,0.217,0.145,0.422,0.248,0.614c0.061,0.216,0.145,0.419,0.248,0.612c0.061,0.216,0.145,0.421,0.248,0.614
		c0.061,0.216,0.145,0.421,0.248,0.613c0.061,0.218,0.145,0.423,0.248,0.615c0.061,0.216,0.145,0.419,0.248,0.612
		c0.061,0.216,0.145,0.421,0.248,0.614c0.06,0.216,0.144,0.421,0.248,0.613c0.06,0.217,0.144,0.421,0.248,0.614
		c0.06,0.217,0.144,0.422,0.248,0.615c0.061,0.216,0.144,0.419,0.248,0.612c0.06,0.216,0.144,0.421,0.248,0.613
		c0.06,0.216,0.144,0.421,0.248,0.614c0.06,0.217,0.144,0.422,0.248,0.615c0.036,0.133,0.072,0.266,0.127,0.391H26.5H25
		c-1.657,0-3,1.343-3,3c0,0.517,0.141,0.994,0.37,1.416c0.062,0.216,0.144,0.422,0.248,0.614c0.062,0.217,0.144,0.423,0.249,0.616
		c0.061,0.215,0.143,0.419,0.246,0.61c0.062,0.217,0.145,0.423,0.248,0.614c0.062,0.216,0.145,0.422,0.248,0.614
		c0.062,0.216,0.145,0.422,0.248,0.614c0.063,0.217,0.145,0.423,0.25,0.615c0.061,0.216,0.143,0.42,0.246,0.611
		c0.062,0.216,0.145,0.422,0.248,0.614c0.062,0.216,0.145,0.422,0.248,0.614c0.063,0.219,0.146,0.426,0.252,0.62
		c0.061,0.214,0.143,0.417,0.245,0.606c0.062,0.216,0.144,0.422,0.248,0.614c0.062,0.216,0.144,0.422,0.248,0.614
		c0.062,0.217,0.144,0.423,0.249,0.615c0.061,0.216,0.143,0.42,0.247,0.611c0.062,0.216,0.144,0.422,0.248,0.614
		c0.062,0.216,0.144,0.422,0.248,0.614c0.062,0.217,0.144,0.423,0.249,0.615c0.061,0.216,0.143,0.42,0.247,0.611
		c0.062,0.216,0.143,0.422,0.248,0.614c0.061,0.216,0.143,0.422,0.247,0.614c0.062,0.216,0.144,0.422,0.248,0.613
		c0.063,0.218,0.145,0.424,0.25,0.616c0.061,0.215,0.143,0.419,0.246,0.611c0.062,0.216,0.144,0.422,0.248,0.614
		c0.062,0.216,0.144,0.422,0.248,0.613c0.063,0.218,0.145,0.424,0.25,0.616c0.061,0.215,0.143,0.419,0.246,0.611
		c0.062,0.216,0.144,0.422,0.248,0.614c0.061,0.216,0.143,0.422,0.248,0.613c0.063,0.218,0.145,0.424,0.249,0.616
		c0.062,0.215,0.144,0.419,0.247,0.611c0.061,0.216,0.143,0.422,0.248,0.614c0.061,0.216,0.143,0.422,0.248,0.613
		c0.063,0.219,0.145,0.426,0.251,0.619c0.062,0.215,0.144,0.419,0.247,0.611c0.061,0.215,0.143,0.419,0.247,0.611
		c0.062,0.216,0.144,0.422,0.248,0.613c0.062,0.217,0.144,0.422,0.248,0.614c0.062,0.217,0.144,0.423,0.249,0.616
		c0.061,0.215,0.143,0.419,0.246,0.611c0.062,0.216,0.145,0.422,0.248,0.613c0.062,0.217,0.145,0.422,0.248,0.614
		c0.063,0.217,0.145,0.423,0.25,0.616c0.061,0.215,0.143,0.419,0.246,0.611c0.062,0.216,0.145,0.422,0.248,0.613
		c0.062,0.217,0.145,0.422,0.248,0.614c0.062,0.216,0.145,0.422,0.248,0.614c0.063,0.217,0.145,0.423,0.249,0.616
		c0.062,0.215,0.144,0.419,0.247,0.61c0.061,0.217,0.145,0.422,0.248,0.614c0.061,0.216,0.145,0.422,0.248,0.614
		c0.063,0.217,0.145,0.423,0.249,0.616c0.062,0.215,0.144,0.419,0.247,0.61c0.061,0.217,0.145,0.422,0.248,0.614
		c0.061,0.216,0.145,0.422,0.248,0.614c0.063,0.217,0.145,0.423,0.249,0.616c0.061,0.215,0.143,0.419,0.247,0.61
		c0.061,0.217,0.144,0.422,0.248,0.614c0.062,0.218,0.145,0.425,0.25,0.619c0.062,0.214,0.143,0.418,0.246,0.609
		c0.063,0.217,0.145,0.423,0.25,0.615c0.061,0.216,0.143,0.419,0.246,0.611c0.062,0.216,0.144,0.422,0.248,0.614
		c0.062,0.216,0.144,0.422,0.248,0.614c0.063,0.217,0.145,0.423,0.25,0.615c0.061,0.216,0.143,0.419,0.246,0.611
		c0.062,0.216,0.143,0.422,0.248,0.614c0.061,0.216,0.143,0.422,0.248,0.614c0.063,0.217,0.145,0.423,0.249,0.615
		c0.062,0.216,0.144,0.419,0.247,0.611c0.061,0.216,0.143,0.422,0.248,0.614c0.061,0.216,0.143,0.422,0.248,0.614
		c0.061,0.216,0.143,0.422,0.248,0.613c0.063,0.218,0.145,0.423,0.249,0.616c0.062,0.215,0.144,0.419,0.247,0.611
		c0.025,0.09,0.07,0.169,0.103,0.255C48.557,126.563,56.107,128,64,128C89.441,128,111.415,113.152,121.732,91.649z"/>
	<path style="fill:#E6E6E6;" d="M37,76c-1.657,0-3-1.343-3-3V53c0-1.657,1.343-3,3-3s3,1.343,3,3v20C40,74.657,38.657,76,37,76z"/>
	<path style="fill:#E6E6E6;" d="M75,76c-1.657,0-3-1.343-3-3V53c0-1.657,1.343-3,3-3s3,1.343,3,3v20C78,74.657,76.657,76,75,76z"/>
	<path style="fill:#CC803D;" d="M82.268,78H25c-1.657,0-3-1.343-3-3s1.343-3,3-3h57.268c9.692,0,17.578-8.602,17.578-19.174
		c0-1.657,1.342-3,3-3c1.656,0,3,1.343,3,3C105.846,66.707,95.268,78,82.268,78z"/>
	<path style="fill:#992B1F;" d="M90,56H25c-1.657,0-3-1.343-3-3s1.343-3,3-3h65c1.657,0,3,1.343,3,3S91.657,56,90,56z"/>
	<g>
		<path style="fill:#B37035;" d="M45.688,74.28c1.162-0.682,2.274-1.399,3.154-2.28h-4.789c-1.441,0.842-2.947,1.621-3.738,2.564
			c-0.834,0.991-1.336,2.169-1.633,3.436h3.227C42.586,76.24,43.956,75.295,45.688,74.28z"/>
		<path style="fill:#B37035;" d="M30.195,72h-3.699c-0.245,0.444-0.477,0.902-0.671,1.398c-0.464,1.177-0.542,2.488-0.853,3.709
			c-0.076,0.298-0.176,0.582-0.285,0.86c0.104,0.011,0.205,0.031,0.313,0.031h2.813c0.088-0.279,0.172-0.561,0.246-0.849
			C28.604,75.011,29.159,73.494,30.195,72z"/>
		<path style="fill:#B37035;" d="M39.378,72H36.25c-0.544,1.968-0.593,3.98-0.614,6h2.798C38.452,75.945,38.586,73.918,39.378,72z"
			/>
		<path style="fill:#B37035;" d="M59.607,77.946c1.625-0.083,3.049-0.583,4.377-1.471c1.955-1.303,2.283-3.783,4.914-4.279
			c0.199-0.038,0.363-0.108,0.506-0.196h-5.439c-0.02,0.024-0.038,0.046-0.057,0.071c-2.756,3.686-6.803,2.934-10.887,2.92
			c-3.637-0.014-7.522,0.357-9.978,3.009h6.81C53.139,77.53,57.027,78.077,59.607,77.946z"/>
		<path style="fill:#B37035;" d="M81.295,73.757c0.461-0.682,0.255-1.342-0.213-1.757h-2.176c-0.071,0.072-0.139,0.151-0.201,0.243
			c-1.255,1.857-4.089,4.326-6.404,3.746c-2.439-0.61-4.039,0.611-6.058,1.841c-0.085,0.052-0.157,0.109-0.226,0.17h10.623
			C78.443,76.904,80.136,75.475,81.295,73.757z"/>
		<path style="fill:#B37035;" d="M103.625,63.475c0.076-1.29-0.184-2.646-0.775-3.652c-1.615-2.743-3.035-5.33-2.832-7.957
			c-0.104,0.304-0.172,0.623-0.172,0.962c0,2.233-0.371,4.372-1.019,6.368c1.159,1.738,2.124,2.886,1.47,5.479
			c-0.492,1.957-2.404,3.544-3.798,4.891c-2.104,2.032-4.124,3.902-5.371,6.586C96.636,73.754,101.109,69.2,103.625,63.475z"/>
		<path style="fill:#B37035;" d="M86.118,77.659c1.36-0.987,2.849-1.949,4.304-3.104c2.729-2.163,4.037-4.543,3.543-7.459
			c-0.986,0.964-2.063,1.818-3.23,2.521c-0.168,0.408-0.394,0.801-0.676,1.174c0.043-0.271,0.004-0.527-0.088-0.759
			c-1.168,0.624-2.404,1.113-3.699,1.443c-0.986,1.366-2.192,2.58-3.199,3.943c-0.331,0.448-0.674,0.887-1.02,1.322
			c-0.102,0.082-0.199,0.164-0.294,0.246c-0.362,0.317-0.688,0.658-0.999,1.01h1.508C83.579,78,84.864,77.88,86.118,77.659z"/>
	</g>
</g>
</svg>
