<?xml version="1.0" encoding="iso-8859-1"?>
<!-- Generator: Adobe Illustrator 15.0.0, SVG Export Plug-In . SVG Version: 6.00 Build 0)  -->
<!DOCTYPE svg PUBLIC "-//W3C//DTD SVG 1.1//EN" "http://www.w3.org/Graphics/SVG/1.1/DTD/svg11.dtd">
<svg version="1.1" id="Layer_1" xmlns="http://www.w3.org/2000/svg" xmlns:xlink="http://www.w3.org/1999/xlink" x="0px" y="0px"
	 width="128px" height="128px" viewBox="0 0 128 128" style="enable-background:new 0 0 128 128;" xml:space="preserve">
<g>
	<circle style="fill:#2D4452;" cx="64" cy="64" r="64"/>
	<path style="fill:#233540;" d="M126.646,77.129c-0.043-0.111-0.082-0.225-0.135-0.333c-0.057-0.178-0.125-0.351-0.211-0.52
		c-0.055-0.173-0.121-0.341-0.203-0.505c-0.057-0.179-0.125-0.351-0.211-0.521c-0.055-0.173-0.121-0.34-0.203-0.505
		c-0.057-0.178-0.125-0.35-0.211-0.52c-0.055-0.174-0.121-0.342-0.203-0.506c-0.057-0.178-0.125-0.35-0.211-0.519
		c-0.055-0.173-0.121-0.341-0.203-0.505c-0.057-0.18-0.127-0.354-0.211-0.522c-0.055-0.172-0.123-0.339-0.203-0.502
		c-0.055-0.175-0.123-0.343-0.205-0.509c-0.055-0.18-0.125-0.354-0.211-0.523c-0.055-0.173-0.121-0.341-0.203-0.505
		c-0.057-0.179-0.125-0.351-0.211-0.52c-0.055-0.173-0.121-0.341-0.203-0.506c-0.057-0.179-0.125-0.351-0.21-0.52
		c-0.056-0.173-0.122-0.34-0.204-0.504c-0.057-0.18-0.126-0.353-0.211-0.521c-0.055-0.173-0.121-0.339-0.203-0.503
		c-0.057-0.18-0.126-0.353-0.211-0.521c-0.055-0.172-0.121-0.339-0.203-0.503c-0.057-0.179-0.126-0.352-0.211-0.521
		c-0.055-0.173-0.121-0.34-0.203-0.503c-0.057-0.18-0.126-0.353-0.211-0.522c-0.055-0.172-0.122-0.338-0.203-0.501
		c-0.055-0.178-0.124-0.351-0.209-0.519c-0.054-0.175-0.122-0.344-0.205-0.509c-0.055-0.179-0.125-0.351-0.21-0.52
		c-0.054-0.174-0.122-0.341-0.204-0.506c-0.055-0.179-0.125-0.351-0.21-0.52c-0.054-0.174-0.122-0.341-0.204-0.505
		c-0.055-0.179-0.125-0.351-0.209-0.52c-0.055-0.175-0.123-0.342-0.205-0.507c-0.056-0.178-0.125-0.35-0.209-0.519
		c-0.055-0.173-0.123-0.341-0.203-0.505c-0.057-0.179-0.127-0.353-0.211-0.521c-0.056-0.173-0.123-0.339-0.205-0.503
		c-0.055-0.179-0.125-0.352-0.211-0.521c-0.054-0.173-0.121-0.339-0.201-0.503c-0.057-0.18-0.127-0.354-0.213-0.522
		c-0.053-0.17-0.119-0.335-0.199-0.497c-0.057-0.181-0.127-0.354-0.213-0.526c-0.055-0.172-0.121-0.338-0.202-0.502
		c-0.058-0.18-0.126-0.354-0.212-0.522c-0.055-0.172-0.121-0.338-0.202-0.502c-0.056-0.179-0.126-0.352-0.211-0.521
		c-0.056-0.174-0.122-0.341-0.204-0.506c-0.163-0.521-0.436-1.015-0.848-1.428l-1.071-1.071l0,0l-2.121-2.121l-2.828-2.828
		l-2.122-2.122l-2.828-2.828l-2.121-2.121l-4.053-4.053l-0.896-0.897l-2.828-2.828l-2.121-2.12l-2.829-2.829l-2.121-2.121
		l-1.778-1.778c-1.361-1.361-3.566-1.361-4.928,0l-4.973,4.972c-1.088,1.09-1.291,2.711-0.639,4.017
		c0.055,0.175,0.123,0.344,0.207,0.51c0.055,0.176,0.123,0.347,0.207,0.514c0.055,0.177,0.123,0.347,0.207,0.515
		c0.055,0.175,0.123,0.344,0.206,0.51c0.056,0.177,0.124,0.347,0.208,0.515c0.008,0.024,0.014,0.05,0.021,0.075l-0.762,0.761
		l0.041,0.041L58,52c-5,0-16.265,0-20,0c-11.066,0-20,8.898-20,19.964c0,2.075,0.329,4.07,0.919,5.95
		c0.253,0.921,0.573,1.811,0.953,2.671c0.129,0.345,0.267,0.683,0.415,1.019c0.128,0.342,0.265,0.678,0.411,1.01
		c0.13,0.348,0.27,0.688,0.418,1.026c0.129,0.344,0.267,0.682,0.414,1.016c0.129,0.346,0.269,0.686,0.417,1.021
		c0.128,0.344,0.267,0.682,0.413,1.016c0.129,0.345,0.268,0.684,0.415,1.019c0.13,0.345,0.269,0.685,0.417,1.021
		c0.128,0.343,0.267,0.681,0.413,1.015c0.128,0.342,0.266,0.678,0.412,1.011c0.129,0.347,0.269,0.688,0.417,1.024
		c0.13,0.347,0.27,0.687,0.417,1.022c0.129,0.344,0.268,0.682,0.414,1.016c0.129,0.344,0.268,0.681,0.414,1.015
		c0.129,0.347,0.27,0.688,0.417,1.023c0.128,0.343,0.267,0.679,0.413,1.012c0.078,0.208,0.149,0.419,0.234,0.623
		c0.22,0.707,0.487,1.392,0.783,2.062c0.129,0.345,0.268,0.684,0.415,1.019c0.129,0.344,0.267,0.683,0.415,1.018
		c0.129,0.344,0.267,0.683,0.414,1.018c0.13,0.346,0.269,0.686,0.417,1.021c0.129,0.344,0.267,0.683,0.414,1.017
		c0.128,0.341,0.265,0.676,0.41,1.008c0.13,0.348,0.27,0.688,0.418,1.025c0.13,0.346,0.269,0.685,0.416,1.021
		c0.129,0.344,0.268,0.682,0.414,1.017c0.13,0.345,0.269,0.684,0.415,1.019c0.13,0.346,0.269,0.685,0.417,1.021
		c0.128,0.344,0.267,0.682,0.413,1.016c0.129,0.345,0.269,0.684,0.416,1.02c0.128,0.342,0.266,0.678,0.411,1.011
		c0.13,0.348,0.271,0.688,0.418,1.025c0.078,0.208,0.15,0.419,0.235,0.624c0.219,0.705,0.486,1.388,0.782,2.057
		c0.129,0.344,0.267,0.683,0.414,1.017c0.13,0.345,0.268,0.686,0.416,1.021c0.13,0.346,0.268,0.685,0.415,1.02
		c0.128,0.34,0.265,0.675,0.41,1.006c0.032,0.085,0.069,0.167,0.103,0.252C44.852,125.775,54.165,128,64,128
		C94.846,128,120.589,106.177,126.646,77.129z"/>
	<g>
		<path style="fill:#70CCBD;" d="M105.999,60.703L77.664,32.35L58,52c-5,0-16.265,0-20,0c-11.066,0-20,8.898-20,19.964
			c0,11.064,8.971,20.035,20.035,20.035c5.533,0,22.803,0,28.336,0.001c5.637-0.001,10.723-2.321,14.363-6.068L105.999,60.703z"/>
		<path style="fill:#69BFB1;" d="M103.165,58.239L77.898,83.393c-3.641,3.747-8.728,5.993-14.362,5.992
			c-5.533,0.001-22.803,0-28.335,0c-4.906,0.001-9.395-1.693-12.878-4.62c3.676,4.373,9.181,7.233,15.341,7.233
			c5.533,0,22.803,0,28.336,0.001c5.637-0.001,10.723-2.321,14.363-6.068l25.265-25.236L103.165,58.239z"/>
		<path style="fill:#F5F5F5;" d="M62.715,80.193c6.717-6.718,17.396-7.097,24.577-1.161l2.474-2.47
			c-8.549-7.285-21.438-6.913-29.515,1.163c-3.964,3.962-6.075,9.047-6.34,14.272c1.197,0,2.37,0,3.508,0
			C57.679,87.644,59.432,83.477,62.715,80.193z"/>
		<g>
			<path style="fill:#62B3A5;" d="M110.965,61.191c-1.359,1.359-3.566,1.359-4.928,0L76.316,31.47c-1.36-1.36-1.36-3.565,0-4.928
				l4.973-4.972c1.359-1.361,3.566-1.361,4.928,0l29.721,29.721c1.36,1.36,1.36,3.566,0,4.927L110.965,61.191z"/>
			<g>
				
					<rect x="87.561" y="27.304" transform="matrix(-0.7071 -0.7071 0.7071 -0.7071 127.7796 121.5374)" style="fill:#F5F5F5;" width="3.001" height="14.001"/>
				
					<rect x="92.48" y="32.226" transform="matrix(-0.7069 -0.7073 0.7073 -0.7069 132.676 133.4262)" style="fill:#F5F5F5;" width="3" height="14"/>
				
					<rect x="82.63" y="22.392" transform="matrix(0.7069 0.7073 -0.7073 0.7069 45.4432 -50.8888)" style="fill:#F5F5F5;" width="3" height="14.002"/>
				
					<rect x="107.359" y="47.103" transform="matrix(-0.7071 -0.7071 0.7071 -0.7071 147.5784 169.336)" style="fill:#F5F5F5;" width="3.001" height="14.001"/>
				
					<rect x="97.461" y="37.205" transform="matrix(-0.7071 -0.7071 0.7071 -0.7071 137.6795 145.4379)" style="fill:#F5F5F5;" width="3" height="13.999"/>
				
					<rect x="102.41" y="42.154" transform="matrix(-0.7074 -0.7068 0.7068 -0.7074 142.6785 157.3685)" style="fill:#F5F5F5;" width="3.001" height="14.001"/>
			</g>
		</g>
		
			<rect x="70.83" y="46.386" transform="matrix(-0.7071 -0.7071 0.7071 -0.7071 121.5479 145.1192)" style="fill:#69BFB1;" width="39.998" height="2"/>
	</g>
</g>
</svg>
