<?xml version="1.0" encoding="iso-8859-1"?>
<!-- Generator: Adobe Illustrator 15.0.0, SVG Export Plug-In . SVG Version: 6.00 Build 0)  -->
<!DOCTYPE svg PUBLIC "-//W3C//DTD SVG 1.1//EN" "http://www.w3.org/Graphics/SVG/1.1/DTD/svg11.dtd">
<svg version="1.1" id="Layer_1" xmlns="http://www.w3.org/2000/svg" xmlns:xlink="http://www.w3.org/1999/xlink" x="0px" y="0px"
	 width="128px" height="128px" viewBox="0 0 128 128" style="enable-background:new 0 0 128 128;" xml:space="preserve">
<g>
	<circle style="fill:#88C5CC;" cx="64" cy="64" r="64"/>
	<path style="fill:#263740;" d="M64,60C40.68,60,18.771,72.409,6.656,92.42c1.035,2.086,2.185,4.104,3.434,6.053l0.263-0.483
		C21.067,78.257,41.623,66,64,66s42.934,12.257,53.646,31.988l0.264,0.482c1.249-1.947,2.398-3.966,3.434-6.052
		C109.229,72.409,87.32,60,64,60z"/>
	<rect x="23" y="60" style="fill:#263740;" width="82" height="6"/>
	<path style="fill:#1E2C33;" d="M23,66h5.191C28.702,65.117,29,64.095,29,63s-0.298-2.117-0.809-3H23V66z"/>
	<rect x="60" y="60" style="fill:#1E2C33;" width="10" height="6"/>
	<rect x="59" y="58" style="fill:#263740;" width="10" height="10"/>
	<circle style="fill:#263740;" cx="106" cy="63" r="6"/>
	<g>
		
			<rect x="80.042" y="96.923" transform="matrix(-0.8404 0.542 -0.542 -0.8404 207.0439 145.8702)" style="fill:#E6E6E6;" width="4" height="13.001"/>
		<polygon style="fill:#B3B3B3;" points="77.818,100.559 79.064,98.803 81.18,98.391 79.662,96.037 76.301,98.206 		"/>
		<polygon style="fill:#E6E6E6;" points="89.096,95.902 64.43,76.113 72.288,106.744 78.523,97.963 		"/>
		<polygon style="fill:#CCCCCC;" points="78.523,97.963 89.096,95.902 64.43,76.113 		"/>
	</g>
	<circle style="fill:#263740;" cx="22" cy="63" r="6"/>
</g>
</svg>
