<?xml version="1.0" encoding="iso-8859-1"?>
<!-- Generator: Adobe Illustrator 15.0.0, SVG Export Plug-In . SVG Version: 6.00 Build 0)  -->
<!DOCTYPE svg PUBLIC "-//W3C//DTD SVG 1.1//EN" "http://www.w3.org/Graphics/SVG/1.1/DTD/svg11.dtd">
<svg version="1.1" id="Layer_1" xmlns="http://www.w3.org/2000/svg" xmlns:xlink="http://www.w3.org/1999/xlink" x="0px" y="0px"
	 width="128px" height="128px" viewBox="0 0 128 128" style="enable-background:new 0 0 128 128;" xml:space="preserve">
<g>
	<circle style="fill:#2179A6;" cx="64" cy="64" r="64"/>
	<g>
		<g>
			<path style="fill:#F5F5F5;" d="M58,61.629c0-9.748,0-19.496,0-29.245c-10,1.581-18.134,3.156-28,4.735c0,9.945,0,14.919,0,24.864
				C39.866,61.868,48,61.745,58,61.629z"/>
			<path style="fill:#F5F5F5;" d="M62,61.571c10-0.12,22.134-0.234,32-0.354c0-11.445,0-22.892,0-34.337
				c-9.866,1.581-22,3.155-32,4.737C62,41.602,62,51.586,62,61.571z"/>
			<path style="fill:#F5F5F5;" d="M62.4,66.43c-0.004,9.984,0,19.969,0,29.954c9.865,1.581,21.732,3.156,31.6,4.735
				c0-11.445,0-22.891,0-34.336C84.134,66.666,72.268,66.548,62.4,66.43z"/>
			<path style="fill:#F5F5F5;" d="M58,66.371c-10-0.119-18.134-0.236-28-0.355c0,9.946,0,14.918,0,24.864
				c9.866,1.581,18,3.155,28,4.736C58,85.867,58,76.119,58,66.371z"/>
		</g>
	</g>
</g>
</svg>
